<?xml version="1.0" encoding="UTF-8" standalone="no"?>
<!-- Created with Inkscape (http://www.inkscape.org/) -->

<svg
   xmlns:dc="http://purl.org/dc/elements/1.1/"
   xmlns:cc="http://creativecommons.org/ns#"
   xmlns:rdf="http://www.w3.org/1999/02/22-rdf-syntax-ns#"
   xmlns:svg="http://www.w3.org/2000/svg"
   xmlns="http://www.w3.org/2000/svg"
   xmlns:xlink="http://www.w3.org/1999/xlink"
   xmlns:sodipodi="http://sodipodi.sourceforge.net/DTD/sodipodi-0.dtd"
   xmlns:inkscape="http://www.inkscape.org/namespaces/inkscape"
   width="500"
   height="500"
   id="svg2"
   sodipodi:version="0.32"
   inkscape:version="0.48.3.1 r9886"
   sodipodi:docname="ic_launcher.svg"
   inkscape:output_extension="org.inkscape.output.svg.inkscape"
   version="1.0">
  <defs
     id="defs4">
    <linearGradient
       inkscape:collect="always"
       id="linearGradient5423">
      <stop
         style="stop-color:#cccccc;stop-opacity:1;"
         offset="0"
         id="stop5425" />
      <stop
         style="stop-color:#cccccc;stop-opacity:0;"
         offset="1"
         id="stop5427" />
    </linearGradient>
    <inkscape:perspective
       sodipodi:type="inkscape:persp3d"
       inkscape:vp_x="0 : 526.18109 : 1"
       inkscape:vp_y="0 : 1000 : 0"
       inkscape:vp_z="744.09448 : 526.18109 : 1"
       inkscape:persp3d-origin="372.04724 : 350.78739 : 1"
       id="perspective10" />
    <inkscape:perspective
       id="perspective2447"
       inkscape:persp3d-origin="372.04724 : 350.78739 : 1"
       inkscape:vp_z="744.09448 : 526.18109 : 1"
       inkscape:vp_y="0 : 1000 : 0"
       inkscape:vp_x="0 : 526.18109 : 1"
       sodipodi:type="inkscape:persp3d" />
    <linearGradient
       inkscape:collect="always"
       xlink:href="#linearGradient5423"
       id="linearGradient5429"
       x1="-500.54897"
       y1="250.02058"
       x2="-1.1955974"
       y2="250.02058"
       gradientUnits="userSpaceOnUse"
       gradientTransform="matrix(0.9693919,0,0,0.97362191,-7.1020952,6.4767181)" />
  </defs>
  <sodipodi:namedview
     id="base"
     pagecolor="#ffffff"
     bordercolor="#666666"
     borderopacity="1.0"
     gridtolerance="10000"
     guidetolerance="10"
     objecttolerance="10"
     inkscape:pageopacity="0.0"
     inkscape:pageshadow="2"
     inkscape:zoom="1.4"
     inkscape:cx="196.39452"
     inkscape:cy="240.44863"
     inkscape:document-units="px"
     inkscape:current-layer="layer3"
     showgrid="false"
     inkscape:window-width="1502"
     inkscape:window-height="984"
     inkscape:window-x="1885"
     inkscape:window-y="55"
     inkscape:window-maximized="0"
     inkscape:showpageshadow="false" />
  <metadata
     id="metadata7">
    <rdf:RDF>
      <cc:Work
         rdf:about="">
        <dc:format>image/svg+xml</dc:format>
        <dc:type
           rdf:resource="http://purl.org/dc/dcmitype/StillImage" />
      </cc:Work>
    </rdf:RDF>
  </metadata>
  <g
     inkscape:groupmode="layer"
     id="layer2"
     inkscape:label="Background"
     style="display:inline"
     sodipodi:insensitive="true">
    <rect
       style="fill:#ffffff;fill-opacity:1;fill-rule:evenodd;stroke:none"
       id="rect5402"
       width="500.46368"
       height="498.88123"
       x="0.42281267"
       y="0.4317728"
       ry="29.692364"
       transform="matrix(0.9999913,0.00417052,-0.00396059,0.99999216,0,0)" />
  </g>
  <g
     inkscape:label="People"
     inkscape:groupmode="layer"
     id="layer1"
     transform="translate(-16.227759,110.30929)"
     style="display:inline"
     sodipodi:insensitive="true">
    <path
       style="fill:#ff8800;fill-opacity:0.94117647;stroke:#000000;stroke-width:2;stroke-miterlimit:4;stroke-opacity:1;stroke-dasharray:none;stroke-dashoffset:0"
       d="m 243.60586,332.05541 c -0.33006,-0.12656 -1.27973,-1.14209 -2.11034,-2.25673 -1.21276,-1.62739 -1.82748,-2.21253 -3.12064,-2.97054 -1.9801,-1.16061 -2.79312,-1.99281 -3.31182,-3.38995 -0.58968,-1.58829 -0.52966,-4.53299 0.13186,-6.4711 0.3667,-1.07434 0.44575,-1.58166 0.25627,-1.64482 -0.47899,-0.15966 -1.2314,-1.08653 -1.82569,-2.24897 -0.5622,-1.09967 -0.57955,-1.31346 -0.7301,-9.00184 -0.17887,-9.13304 0.26328,-17.72788 1.25108,-24.31881 1.76557,-11.78042 2.01648,-14.00618 2.01603,-17.88367 -5.5e-4,-4.90414 -0.53973,-20.29155 -0.82851,-23.64485 -0.0512,-0.59412 -0.16616,-2.05242 -0.25552,-3.24067 -0.0894,-1.18824 -0.19994,-2.58182 -0.24572,-3.09682 -0.0871,-0.97988 -0.51488,-6.347 -0.71943,-9.02566 -0.0655,-0.85818 -0.22269,-2.4245 -0.34924,-3.48072 -0.12656,-1.05621 -0.3999,-3.48671 -0.60743,-5.4011 -0.2075,-1.91439 -0.42465,-3.85879 -0.48252,-4.32088 -0.0579,-0.4621 -0.2738,-2.46051 -0.47984,-4.44091 -0.206,-1.98042 -0.42299,-3.97882 -0.48213,-4.44091 -0.11482,-0.89707 -0.60896,-5.70196 -1.29603,-12.60259 -0.30104,-3.02342 -1.29105,-9.25735 -1.94425,-12.24251 -0.84421,-3.85807 -1.95439,-7.63284 -2.38662,-8.11474 -0.0952,-0.10622 -0.24475,2.81038 -0.33221,6.48133 -0.33501,14.06148 -0.94157,32.45782 -1.52601,46.28256 -0.37998,8.98848 -0.50365,30.62755 -0.19348,33.8545 0.15845,1.64854 0.56609,6.55952 0.73661,8.87426 0.0778,1.05622 0.35578,2.9466 0.6177,4.20087 0.26192,1.25425 1.22161,5.84692 2.13262,10.20593 2.62998,12.58374 2.70103,13.76764 1.6634,27.72184 -0.47571,6.3976 -0.50893,6.61768 -1.07646,7.13025 l -0.58559,0.52893 0.60655,0.89382 c 0.82951,1.22233 0.91422,1.69587 0.78179,4.36993 -0.18803,3.79695 -1.234,5.60445 -3.43412,5.9344 -1.5909,0.23856 -1.80317,0.50108 -2.13504,2.64025 -0.34265,2.20872 -0.51508,2.67463 -1.10711,2.99149 -0.23714,0.12692 -1.9798,0.57531 -3.87257,0.9964 -3.25845,0.72495 -3.76034,0.77073 -9.4426,0.86108 l -6.00122,0.0954 -1.00478,-0.86394 c -1.17699,-1.012 -1.75579,-2.61438 -1.75579,-4.86078 0,-1.2645 0.13061,-1.63999 1.23975,-3.56379 2.35705,-4.08828 4.51749,-8.58724 4.26803,-8.88783 -0.12907,-0.15553 -1.07004,-0.33369 -2.09106,-0.39595 -3.66973,-0.22374 -6.33318,-1.65221 -6.6209,-3.55096 -0.0698,-0.4609 -0.29744,-4.13266 -0.50579,-8.15949 -0.20833,-4.02682 -0.6987,-13.26271 -1.08972,-20.5242 -0.39102,-7.26149 -0.92794,-17.36157 -1.19316,-22.44461 -0.54784,-10.49889 -0.64145,-11.83836 -1.94573,-27.8457 -0.52174,-6.40332 -1.06123,-12.29052 -1.19882,-13.08268 -0.49931,-2.87428 -3.25754,-14.57944 -4.29902,-18.24375 -1.1646,-4.09742 -3.01283,-13.06465 -5.54142,-26.88551 -0.63807,-3.48756 -0.61181,-3.42444 -1.49723,-3.59905 -1.2308,-0.24274 -2.04429,-0.6177 -2.19559,-1.01198 -0.15368,-0.40048 0.16317,-3.34875 0.70404,-6.55126 0.18954,-1.12223 0.56767,-3.49871 0.84032,-5.28108 0.27264,-1.78236 0.54152,-3.52562 0.59753,-3.87389 0.0679,-0.42211 -0.0568,-0.77676 -0.37388,-1.06374 -0.79031,-0.71521 -2.5589,-3.55267 -5.06499,-8.12607 -2.81319,-5.13376 -2.77033,-4.94973 -3.55338,-15.2621 -1.24175,-16.35326 -1.70511,-21.88214 -1.93424,-23.07915 -0.45494,-2.37676 -0.96072,-11.303414 -1.11345,-19.651494 -0.1693,-9.25513 -0.28386,-7.93462 2.06167,-23.76299 0.26412,-1.78236 0.70193,-4.75298 0.97289,-6.60136 1.85679,-12.665929 2.61891,-16.155559 4.22602,-19.349749 1.25294,-2.49029 2.69619,-3.46434 8.14461,-5.49681 6.84843,-2.55472 18.36857,-7.37404 19.82554,-8.29379 0.56445,-0.35631 1.29927,-1.23965 2.02331,-2.43224 0.62532,-1.03 2.1058,-2.93819 3.28996,-4.24043 1.18417,-1.30224 2.29041,-2.70706 2.4583,-3.12182 0.16789,-0.41475 0.37148,-2.2929403 0.45242,-4.1737303 l 0.14717,-3.41962 -0.95698,-1.48063 c -0.52633,-0.81435 -1.06262,-1.87301005 -1.19177,-2.35259005 -0.16628,-0.61757 -0.541,-1.08778 -1.28436,-1.61176995 -1.28592,-0.90639 -2.24477,-2.12656 -2.42185,-3.08185 -0.18299,-0.98731 -0.57984,-4.23482 -0.74766,-6.1183197 -0.3992,-4.48075 -0.57141,-5.72484 -0.91379,-6.60136 -0.72834,-1.86461 -0.41041,-10.63366 0.49168,-13.56278 0.35398,-1.14933 0.74406,-1.65454 3.01296,-3.90217 1.43345,-1.42005 3.40579,-3.12139 4.38296,-3.78077 1.48963,-1.00519 1.9542,-1.19888 2.8757,-1.19888 0.69467,0 1.53211,-0.21945 2.27609,-0.59646 3.60869,-1.82866 6.4797,-2.48021 8.59216,-1.94994 0.7574,0.19014 1.97123,0.41501 2.69739,0.49974 2.50637,0.29242 5.36766,0.87887 6.07653,1.24543 0.93619,0.48413 6.98701,6.40212 7.67212,7.50372 0.58288,0.93721 0.57746,0.84852 0.71371,11.67948 l 0.0606,4.81919 0.70378,1.01787 0.70377,1.01786 -0.29298,3.73635 c -0.45635,5.8201797 -0.63714,6.4214697 -2.80075,9.3146197 -0.69115,0.92417995 -1.32608,2.00439995 -1.41099,2.40048 -0.0849,0.39609 0.0138,1.69235 0.21924,2.88059 0.30623,1.77078 0.5778,2.50368 1.50574,4.06341 1.27391,2.1412603 3.27861,4.4127603 5.15373,5.8396703 1.51877,1.15572 9.39404,4.6454 12.36469,5.47903 1.15364,0.32372 3.06971,0.85901 4.25795,1.18951 13.0498,3.62975 13.3766,3.74355 14.78007,5.14703 1.02722,1.02721 1.16846,1.31369 1.64182,3.32985 1.28496,5.47321 2.09625,13.986889 3.37761,35.443899 0.95492,15.99082 1.00835,17.88812 0.90604,32.1666 -0.10648,14.860744 -0.15353,15.652784 -1.39759,23.524814 -1.65574,10.47726 -3.3477,15.70772 -6.65938,20.5866 -0.64885,0.95589 -1.80185,2.70692 -2.56225,3.89119 l -1.38257,2.15321 0.63097,6.24852 c 0.34701,3.43667 0.63013,7.46376 0.62915,8.94906 l -0.002,2.70056 -0.70834,0 c -0.38958,0 -1.23276,0.11245 -1.87371,0.24993 l -1.16539,0.24992 0.044,4.61108 c 0.081,8.48528 -0.28418,16.20577 -0.9789,20.69435 -0.34737,2.24447 -0.73491,5.59315 -0.8612,7.44153 -0.30124,4.40927 -0.55956,7.37808 -1.40979,16.20332 -0.98105,10.18298 -1.17554,15.67478 -1.37284,38.76794 -0.22555,26.3982 -0.22505,27.49198 0.0196,43.10478 0.16097,10.27439 0.14261,13.4627 -0.08,13.87861 -0.35168,0.65709 -1.69784,1.25489 -4.63509,2.05831 -3.63446,0.99411 -3.66329,1.41578 -0.40794,5.9688 2.71515,3.7974 4.01905,6.28265 4.22979,8.06195 0.17905,1.51176 -0.10245,1.97524 -2.12715,3.50259 -2.08197,1.57054 -3.22542,2.00928 -6.29001,2.41347 -2.94828,0.38886 -10.72429,0.442 -11.66903,0.0797 z M 238.41197,49.185376 c 0.34475,-1.58432 0.78759,-3.85279 0.9841,-5.04103 0.90734,-5.486989 3.04894,-20.804889 2.92594,-20.927889 -0.0306,-0.0306 -1.07754,1.46534 -2.32651,3.3243 -1.24896,1.85896 -2.52292,3.57829 -2.83105,3.82073 -0.54926,0.4322 -0.5797,0.42855 -1.56031,-0.18666 -0.55006,-0.3451 -1.8751,-1.41953 -2.9445,-2.38762 l -1.94437,-1.76016 -1.87155,2.05592 -1.87151,2.05592 1.47197,2.12413 c 0.80962,1.16827 1.6785,2.64516 1.93089,3.28197 0.25241,0.63681 1.12712,2.56213 1.94382,4.27847 2.17795,4.577009 4.20953,9.389119 4.69263,11.115069 0.23292,0.83221 0.50228,1.42632 0.59856,1.32027 0.0963,-0.10606 0.45713,-1.48909 0.80189,-3.07342 z m -19.77122,-2.41859 c 0,-1.42118 1.00381,-6.402919 2.07337,-10.289799 0.47445,-1.72417 1.00002,-3.83525 1.16791,-4.69128 0.30388,-1.54918 0.30201,-1.56119 -0.40124,-2.58334 -0.38859,-0.5648 -0.81907,-1.34972 -0.95659,-1.74425 -0.13756,-0.39454 -0.32842,-0.71734 -0.42417,-0.71734 -0.0957,0 -1.39651,1.35529 -2.89061,3.01177 -1.6633,1.84406 -2.86342,2.98347 -3.0954,2.9388 -0.20837,-0.04013 -0.66585,-0.64734 -1.01664,-1.34936 -0.76885,-1.53873 -1.17801,-2.01571 -1.17801,-1.37329 0,1.12922 4.09701,13.347649 5.663,16.888589 0.65555,1.48234 1.05838,1.44789 1.05838,-0.0905 z m 1.63123,-21.586329 c 1.21918,-1.45229 2.28373,-2.89513 2.36561,-3.2063 0.12936,-0.49149 -0.58601,-1.30118 -5.44933,-6.16783 -3.07907,-3.08114 -5.67681,-5.55353 -5.77278,-5.49422 -0.096,0.05931 -0.2479,0.54234 -0.33761,1.07338 -0.11243,0.66546 -0.52969,1.39246 -1.34264,2.33922 -1.35777,1.58131 -1.35964,1.02877 0.0212,6.2947 0.50201,1.91439 1.03814,4.12884 1.19142,4.92101 0.15327,0.79216 0.89147,2.71976 1.64039,4.28354 l 1.36173,2.84327 2.05263,-2.12312 c 1.12895,-1.16771 3.05017,-3.31135 4.26936,-4.76365 z m 18.93008,1.56032 c 3.19434,-4.60135 3.33796,-4.95185 3.78733,-9.24189 0.54282,-5.1823 0.55516,-5.06658 -0.70519,-6.60305 -0.59489,-0.72522 -1.18829,-1.3185703 -1.31869,-1.3185703 -0.13039,0 -2.69527,2.3307103 -5.69978,5.1793603 -3.00448,2.84865 -5.89191,5.56525 -6.41646,6.0369 -0.92544,0.83208 -0.94328,0.87721 -0.60012,1.51896 0.39394,0.73677 5.27356,5.60263 6.95499,6.93539 0.59412,0.47091 1.23051,0.82861 1.41423,0.79489 0.18368,-0.03373 1.34636,-1.51962 2.58369,-3.30199 z M 350.6678,316.08741 c -2.61358,-0.32697 -7.64158,-1.36799 -8.1241,-1.68205 -0.30942,-0.2014 -0.78162,-0.86137 -1.04935,-1.46663 -0.44045,-0.99565 -0.45831,-1.22781 -0.18752,-2.43775 0.28879,-1.29051 0.46009,-1.50127 4.89316,-6.02077 4.55059,-4.63936 6.82532,-7.47362 7.96823,-9.92829 0.49839,-1.07038 0.57605,-1.59534 0.57807,-3.90766 0.002,-1.85244 -0.0896,-2.74408 -0.29771,-2.90906 -0.16503,-0.13083 -1.11023,-0.25823 -2.10043,-0.28305 -0.9902,-0.0248 -1.87255,-0.12007 -1.96077,-0.21157 -0.27143,-0.28163 -1.15219,-9.21958 -1.4988,-15.21 -0.1808,-3.1249 -0.38619,-5.77459 -0.4564,-5.88818 -0.11844,-0.19163 -0.56883,-5.44547 -1.4776,-17.23608 -0.20477,-2.65663 -0.78851,-7.32061 -1.30695,-10.44214 -0.51529,-3.10263 -1.05754,-6.72138 -1.205,-8.04165 -0.52964,-4.74217 -0.81749,-5.88874 -3.76637,-15.00307 -3.24386,-10.02604 -8.2346,-24.72586 -8.50155,-25.04071 -0.0913,-0.1076 -0.23893,1.94483 -0.32818,4.56094 -0.0893,2.61609 -0.26571,5.78275 -0.3921,7.03701 -0.12638,1.25426 -0.33616,3.52273 -0.46617,5.04104 -0.13003,1.5183 -0.51656,5.67716 -0.85899,9.24188 -0.34243,3.56474 -0.71266,9.28991 -0.82275,12.72262 -0.46757,14.57879 -0.73313,23.37836 -0.97899,32.43672 -0.14377,5.29762 -0.35511,10.0506 -0.46961,10.56216 -0.11452,0.51157 -0.38905,1.03815 -0.61006,1.17017 -1.26804,0.75748 -1.35107,0.94201 -2.16608,4.81347 -0.44325,2.10557 -0.80897,4.16264 -0.81267,4.57125 -0.008,0.92017 -0.47623,1.35509 -2.16716,2.01433 -0.72615,0.28311 -1.91439,0.80477 -2.64054,1.1592 -1.27466,0.62221 -1.46125,0.64446 -5.40111,0.64446 -2.81837,0 -4.38826,-0.10202 -5.07461,-0.32976 -0.92626,-0.30736 -1.08121,-0.28937 -2.28047,0.26464 -0.70767,0.32691 -2.25889,1.32343 -3.44714,2.21447 -3.74625,2.80925 -4.18426,2.95011 -11.9832,3.85395 -5.55658,0.64395 -6.87012,0.57544 -9.92323,-0.51753 -1.37233,-0.49126 -2.19786,-1.86578 -2.27979,-3.79583 -0.057,-1.34327 -0.0303,-1.40901 0.90145,-2.22439 0.92134,-0.8062 8.00061,-4.39218 12.90457,-6.53678 1.28834,-0.56341 2.61203,-1.23644 2.94154,-1.49565 0.32951,-0.2592 1.31936,-1.51631 2.19967,-2.7936 0.88031,-1.27727 1.98604,-2.80425 2.45721,-3.39328 0.47117,-0.58901 0.82721,-1.24487 0.7912,-1.45744 -0.036,-0.21257 0.16095,-1.35098 0.43773,-2.52978 2.3485,-10.00252 3.12055,-13.54605 3.44807,-15.82611 0.48778,-3.39571 1.99044,-15.57497 2.19165,-17.76364 0.17211,-1.87241 -0.42885,-11.64633 -0.94462,-15.36315 -0.1832,-1.32027 -0.83453,-5.96522 -1.44735,-10.32211 -0.61282,-4.3569 -1.54695,-11.05427 -2.07585,-14.88305 -1.42491,-10.31557 -3.60989,-23.12262 -5.24208,-30.7263 l -1.44281,-6.72138 -0.51128,-7.92163 c -0.52053,-8.06507 -0.73004,-17.96509 -0.40472,-19.12482 0.16484,-0.58763 0.0436,-0.74011 -1.4553,-1.83032 -2.55209,-1.85622 -5.3416,-5.87793 -6.44444,-9.29105 l -0.62048,-1.9204 -0.23006,-14.643 c -0.33738,-21.472714 0.14199,-32.471764 1.98777,-45.609354 1.9054,-13.561679 2.29875,-15.161739 4.14602,-16.864499 1.32286,-1.21936 2.92607,-2.27941 8.64445,-5.71578 5.27648,-3.17079 6.97342,-4.56692 9.84248,-8.09771 1.8793,-2.31274 2.29525,-3.27776 2.30764,-5.35358 0.008,-1.40574 -0.39481,-2.41325 -1.6234,-4.05664 -1.05596,-1.41248 -2.30868,-3.87687 -2.60706,-5.1287 -0.0829,-0.34787 -0.23342,-0.7405103 -0.33443,-0.8725303 -0.53147,-0.69462 -1.24596,-4.22081 -1.89697,-9.36192005 -0.40122,-3.16864995 -0.90076,-6.84139995 -1.11008,-8.16166995 -0.55127,-3.4771697 -0.50891,-6.5892897 0.11659,-8.5631697 0.83943,-2.6489 3.51742,-5.74715 6.54314,-7.56998 2.17955,-1.31303 3.57971,-1.56912 9.23746,-1.68952 l 5.07871,-0.10807 2.00274,0.87566 c 4.75563,2.07935 5.26893,2.37844 6.69144,3.89898 3.12246,3.33766 3.76834,4.8959 4.09288,9.87456 0.16667,2.5565797 0.31968,3.5352797 0.59596,3.8115597 0.30442,0.30443 0.35517,0.87662 0.28035,3.1615 -0.11091,3.38718995 -0.63446,5.38219 -2.32479,8.85887 l -1.21186,2.49254 0,2.49276 0,2.4927603 2.58053,2.7173 c 1.41929,1.49451 3.28416,3.57509 4.14414,4.62351 l 1.5636,1.90623 6.42104,1.96524 c 10.15669,3.1086 11.44434,3.55615 14.40448,5.00667 2.40457,1.17827 2.92226,1.53869 3.74057,2.60417 0.52234,0.68015 1.12302,1.61472 1.33484,2.07681 0.55475,1.21039 2.9454,13.603309 3.49615,18.123719 1.39451,11.44642 2.45985,21.74153 2.5461,24.60504 0.0537,1.78236 0.21316,4.02595 0.35441,4.98576 0.27025,1.83654 0.34735,5.75435 0.12737,6.47354 -0.0712,0.23272 -0.35254,2.13678 -0.62523,4.23124 -0.2727,2.09444 -0.6688,4.1426 -0.88022,4.55146 -0.88909,1.71928 -9.2085,14.043274 -10.88565,16.125454 l -0.77339,0.9602 0.14303,2.4005 c 0.0787,1.32027 0.74931,6.55934 1.49032,11.64238 1.17463,8.05749 1.37526,9.98023 1.56548,15.00307 0.12,3.16865 0.46835,7.80316 0.7741,10.2989 l 0.55596,4.5377 -0.91634,0.35995 c -1.06592,0.4187 -1.2124,0.80914 -1.62775,4.3389 -0.49858,4.23689 -0.16933,8.21948 0.95564,11.55942 0.24614,0.73081 0.60732,2.29713 0.80258,3.48071 1.13037,6.85178 3.64846,21.50875 4.34945,25.3167 0.44961,2.4425 1.1977,6.76339 1.66241,9.60197 0.46471,2.83858 1.16522,6.24128 1.5567,7.56155 1.73908,5.86534 1.70852,5.61684 1.70242,13.84282 -0.003,4.13686 -0.10648,12.43657 -0.22987,18.4438 -0.12336,6.00723 -0.23865,16.5934 -0.25618,23.52482 l -0.0319,12.60258 0.74256,2.28047 c 0.57706,1.77219 0.80449,3.05629 1.02033,5.76118 0.1528,1.9144 0.20122,3.98492 0.1076,4.60114 -0.21859,1.439 -1.22826,2.82649 -2.84012,3.90294 -0.69708,0.46553 -1.50569,1.02101 -1.79689,1.2344 -0.2912,0.21341 -0.96846,0.41059 -1.50501,0.43817 -0.91349,0.047 -1.07274,0.17308 -2.50448,1.98374 -1.84598,2.3345 -3.76496,4.23084 -5.063,5.00327 -1.06375,0.63304 -4.32028,1.73983 -7.78216,2.64492 -2.25415,0.58934 -5.14656,0.88237 -6.74082,0.68294 z M 141.825,305.77114 c -0.33007,-0.0589 -2.16645,-0.32228 -4.08084,-0.58525 -3.10365,-0.42633 -3.69904,-0.58681 -5.49615,-1.48133 -1.10849,-0.55175 -3.10691,-1.80226 -4.44091,-2.7789 -3.05724,-2.23824 -3.025,-2.22245 -6.65416,-3.26045 -3.65917,-1.04654 -5.39918,-1.81443 -6.34351,-2.79942 -0.67334,-0.70231 -0.71437,-0.86334 -0.79209,-3.10895 -0.0877,-2.53247 0.30041,-4.47095 1.18341,-5.91126 0.25239,-0.41169 0.45888,-0.81548 0.45888,-0.89736 0,-0.0819 -0.43934,-0.21911 -0.9763,-0.30498 -1.46644,-0.23451 -1.62828,-0.50463 -1.37215,-2.29019 0.27707,-1.93156 0.055,-4.41823 -0.58421,-6.54273 -0.47983,-1.59475 -0.49346,-1.99217 -0.3381,-9.84203 0.11675,-5.89963 0.0582,-10.55589 -0.20995,-16.7019 -0.3614,-8.28172 -0.55682,-40.29581 -0.24906,-40.79382 0.0734,-0.11875 0.0172,-4.78854 -0.12496,-10.37732 -0.19843,-7.80244 -0.3952,-11.39247 -0.84757,-15.46423 -0.32402,-2.91656 -0.64514,-5.87398 -0.71352,-6.5721 -0.0684,-0.69808 -0.60615,-3.22683 -1.19497,-5.61943 -0.58881,-2.39257 -1.07062,-4.5328 -1.07069,-4.75607 -5e-5,-0.22324 -0.0978,-0.46632 -0.21732,-0.54016 -0.12211,-0.0755 -0.16647,0.2599 -0.10132,0.766 0.0637,0.49512 -0.11289,2.14249 -0.39246,3.66079 -1.03963,5.64578 -1.21532,6.6372 -1.44639,8.16168 -0.13008,0.85817 -0.33647,2.15445 -0.45868,2.88059 -0.30146,1.79115 -2.54781,10.48463 -4.74513,18.36377 -0.994114,3.56472 -1.964404,7.07544 -2.156144,7.80159 -0.19175,0.72615 -1.52259,5.64116 -2.95739,10.92225 -3.5552,13.08558 -3.86025,14.24259 -4.08244,15.48317 -1.30805,7.30385 -1.98147,11.7444 -2.30301,15.18618 -0.21261,2.27576 -0.52595,5.48805 -0.69631,7.13839 -0.17036,1.65034 -0.32251,5.91722 -0.33809,9.48195 -0.0155,3.56472 -0.099,9.50595 -0.18536,13.2027 -0.14396,6.16132 -0.19401,6.74752 -0.6007,7.03506 -0.39417,0.27867 -0.44369,0.67559 -0.44369,3.55649 0,1.98794 -0.1072,3.44574 -0.27706,3.76717 -0.15241,0.28839 -0.72269,0.95643 -1.26729,1.48454 -0.54463,0.52811 -1.77701,1.84484 -2.73867,2.92612 l -1.74848,1.9659 -1.26748,-0.0455 c -1.23445,-0.0444 -1.3068,-0.009 -2.77415,1.34865 -2.35085,2.17542 -4.66226,3.69543 -6.0827,4.00006 -1.38927,0.29795 -4.46204,0.16282 -8.20916,-0.36101 -1.32027,-0.18458 -3.0165,-0.38975 -3.7694,-0.45597 -2.21301,-0.19466 -2.90224,-0.59932 -3.53801,-2.0772 -0.43151,-1.00311 -0.52271,-1.55425 -0.42068,-2.54276 0.15469,-1.49878 0.56075,-2.28432 2.32463,-4.49716 0.72745,-0.91259 1.80872,-2.27543 2.40285,-3.02851 0.59412,-0.75308 1.98132,-2.43691 3.08266,-3.74184 1.94471,-2.30421 3.55177,-4.93128 3.28282,-5.36644 -0.0728,-0.11782 -0.72958,-0.34788 -1.45952,-0.51121 -0.72992,-0.16335 -1.36245,-0.35974 -1.40561,-0.43639 -0.0432,-0.0767 0.0645,-1.48967 0.2393,-3.14001 0.40909,-3.86222 0.50471,-22.71725 0.1467,-28.92593 -0.14465,-2.50852 -0.33278,-8.44973 -0.4181,-13.20271 -0.16285,-9.07576 -0.19347,-8.48432 1.09378,-21.12433 1.03282,-10.14143 1.31752,-14.77334 1.54926,-25.20516 0.13361,-6.01475 0.49042,-14.47313 0.74146,-17.57785 l 0.12087,-1.49452 -0.7917,-0.33081 c -0.43543,-0.18193 -1.69164,-1.01997 -2.79157,-1.8623 -2.36416,-1.81053 -3.23312,-3.24535 -3.65371,-6.03299 -0.29062,-1.92627 -0.33494,-7.72608 -0.085,-11.13459 l 0.16023,-2.18563 -0.98283,-0.15716 c -0.54055,-0.0864 -1.36237,-0.33816 -1.82629,-0.55939 l -0.84349,-0.40222 -3.6e-4,-12.73816 c -1.9e-4,-7.00599 -0.0694,-19.11146 -0.15382,-26.90106 -0.14857,-13.711344 0.0876,-26.683344 0.63375,-34.807144 0.12427,-1.84838 0.28635,-4.71096 0.36017,-6.3613 0.28018,-6.26307 0.64725,-10.83347 1.22423,-15.24312 0.32821,-2.50852 0.8088,-6.28929 1.06795,-8.40173 0.73184,-5.965629 1.16122,-8.741489 1.42973,-9.243229 0.47537,-0.88824 3.83102,-2.86389 13.44204,-7.91406 7.34183,-3.8578 9.44735,-5.04907 13.92286,-7.87728 6.30066,-3.98159 6.88398,-4.36723 7.26215,-4.80118 0.20071,-0.23028 0.49604,-1.44259 0.67286,-2.76194 0.26069,-1.9453303 0.2604,-2.5050703 -0.002,-3.2406603 -0.44601,-1.25151 -1.16999,-2.20945 -1.66982,-2.20945 -0.23722,0 -0.94083,-0.66338 -1.59129,-1.5003 -0.94993,-1.22224 -1.29265,-1.94522 -1.8492,-3.90080005 -0.89802,-3.15549995 -1.14936,-6.54904995 -0.55247,-7.45999995 0.48924,-0.74669 0.51812,-1.01587 0.82193,-7.6630997 0.29694,-6.49696 0.68625,-7.88827 3.00311,-10.73245 1.23926,-1.52132 3.73139,-3.48896 4.67323,-3.68971 0.34845,-0.07427 1.659774,-0.51843 2.914034,-0.98703 l 2.28046,-0.85199 3.96082,0.13851 c 7.14177,0.24975 9.45539,1.1411 13.46335,5.18691 3.31926,3.35061 3.92125,4.50858 3.93234,7.56404 0.004,1.19432 -0.13676,3.63431 -0.31355,5.42222 -0.31802,3.2162897 -0.31574,3.2603797 0.21487,4.1596797 0.51178,0.86744 0.52866,1.06426 0.36924,4.3108 -0.26232,5.34228995 -1.13044,8.32288 -2.42409,8.32288 -0.64347,0 -0.88727,0.58976 -1.29005,3.12064 -0.46884,2.94586 -0.585,5.6448103 -0.28241,6.5616503 0.30877,0.93557 2.03976,2.63325 4.93411,4.83911 1.53855,1.17257 2.43998,1.56465 10.68219,4.64634 4.95101,1.85114 11.10621,4.32474 13.6782,5.49688 3.93875,1.79501 4.74645,2.25118 5.12078,2.8921 0.57533,0.98511 3.67336,11.769009 3.87593,13.491689 0.1531,1.30206 0.62579,4.76153 1.09878,8.04165 0.13325,0.92419 0.29401,2.11244 0.35722,2.64054 0.0632,0.52811 0.27824,2.09443 0.47786,3.48072 0.1996,1.38628 0.46908,3.27667 0.59888,4.20086 0.64201,4.57215 1.34903,18.76509 1.79962,36.12741 0.20046,7.723584 0.47235,17.823644 0.60421,22.444604 0.13185,4.62094 0.30997,12.42157 0.39578,17.33475 l 0.15604,8.93303 -0.69891,0.26979 c -0.38438,0.14839 -1.32672,0.22599 -2.09408,0.17244 -1.09403,-0.0763 -1.43673,-0.0161 -1.58765,0.27912 -0.10583,0.20706 -0.26335,1.59635 -0.35006,3.08731 -0.10634,1.82916 -0.31545,3.11738 -0.64295,3.96081 -0.26693,0.68749 -0.68824,2.3302 -0.93626,3.65047 -0.8269,4.40226 -0.89994,4.57975 -2.90551,7.06131 -2.53021,3.13068 -3.253,3.77818 -6.58535,5.89932 -1.58432,1.0085 -2.96446,1.91587 -3.06696,2.0164 -0.10252,0.1005 -0.0561,3.22976 0.1031,6.95388 0.35547,8.31416 -0.0564,30.68412 -0.64962,35.28194 -0.19864,1.53969 -0.52626,4.09571 -0.72803,5.68004 -0.56254,4.41714 -1.00993,7.42712 -1.53419,10.32212 -0.26302,1.45229 -0.64343,3.66675 -0.84536,4.921 -0.20196,1.25426 -0.52679,3.14464 -0.72188,4.20086 -0.19511,1.05622 -0.4589,2.8926 -0.58625,4.08084 -0.25289,2.3599 -0.79331,6.84306 -1.34554,11.16229 -0.41152,3.21862 -0.78167,10.05453 -1.01906,18.81914 l -0.16837,6.21656 -1.14023,0.33203 c -1.25779,0.36629 -1.25836,0.36706 -0.86135,1.11347 1.23964,2.33061 5.9216,6.45429 12.19176,10.73803 3.32556,2.27194 5.42916,3.94316 6.09157,4.83943 0.29185,0.39488 0.52374,1.17103 0.59055,1.97666 0.10298,1.24185 0.0619,1.37141 -0.64444,2.03123 -0.9185,0.85801 -4.08938,2.10352 -6.24247,2.452 -1.76918,0.28638 -5.82172,0.4694 -6.74472,0.30462 z m 328.14723,-10.18977 c -2.0565,-0.65387 -2.5228,-0.71616 -4.7484,-0.63438 -1.5494,0.0569 -2.5932,-0.006 -2.8043,-0.17031 -0.1848,-0.14355 -0.4039,-0.85513 -0.4867,-1.58128 -0.2972,-2.60583 -0.5931,-4.16769 -0.8357,-4.41023 -0.1422,-0.14218 -0.2467,-1.49767 -0.2467,-3.19933 l 0,-2.95261 -0.8347,0 c -1.3322,0 -1.5951,-0.64524 -1.7345,-4.25719 -0.097,-2.51394 -0.2471,-3.47388 -0.8356,-5.34477 -0.8504,-2.70409 -0.8997,-3.82375 -0.2329,-5.29129 0.2725,-0.59972 0.5631,-1.51791 0.6458,-2.04042 0.1467,-0.9264 0.1048,-0.99772 -1.6905,-2.87039 l -1.841,-1.92039 0.1461,-3.96081 c 0.0804,-2.17845 0.2414,-4.61963 0.3578,-5.42483 0.1416,-0.98002 0.1165,-2.02378 -0.0761,-3.15722 -0.2383,-1.40335 -0.4398,-1.8617 -1.1768,-2.6775 -0.4891,-0.54139 -0.897,-1.01105 -0.9064,-1.04367 -0.0192,-0.0666 -0.1938,-1.6349 -0.9083,-8.16009 -0.2711,-2.475 -0.5527,-4.85149 -0.6258,-5.28108 -0.0733,-0.42957 -0.2355,-2.11693 -0.3605,-3.74964 -0.2173,-2.83791 -0.2687,-3.03869 -1.1676,-4.56094 -1.2905,-2.18526 -1.1418,-1.4785 -1.8253,-8.67379 -0.1958,-2.0614 -0.8339,-6.07599 -1.4308,-9.00184 -1.197,-5.86661 -1.4952,-7.75261 -2.6571,-16.80345 -0.6232,-4.85387 -1.043,-7.14842 -1.8887,-10.32212 -1.2002,-4.50401 -3.7597,-15.20447 -3.7655,-15.74216 -0.007,-0.64494 -0.4113,-1.05403 -0.7582,-0.7671 -0.3953,0.32702 -0.1407,10.28107 0.4162,16.26922 1.0187,10.95308 1.2912,14.36243 1.5256,19.0839 0.4377,8.81802 0.7566,13.52455 0.9841,14.52299 0.1203,0.52811 0.7519,2.90459 1.4036,5.28108 0.8785,3.20362 1.2825,5.23179 1.5624,7.84373 0.2076,1.93758 0.7698,6.09643 1.2492,9.24188 0.8361,5.48434 0.8666,5.90625 0.7432,10.27999 l -0.1287,4.56094 0.9692,3.00061 0.9691,3.00062 -0.1002,3.72076 c -0.0863,3.20768 -0.1707,3.85656 -0.612,4.70552 -0.2815,0.54162 -0.4689,1.18975 -0.4165,1.4403 0.0525,0.25056 0.2697,1.19308 0.4829,2.09454 0.3397,1.43742 0.3563,2.33798 0.135,7.32151 -0.1387,3.12537 -0.1823,5.94446 -0.0969,6.26463 0.1254,0.46978 -0.0109,0.7246 -0.7059,1.32027 l -0.8613,0.73813 -0.3603,4.60636 c -0.2782,3.55733 -0.4729,4.86116 -0.8552,5.72534 l -0.495,1.11898 -3.1264,-0.0842 c -2.7685,-0.0745 -3.1411,-0.0378 -3.2549,0.32112 -0.0707,0.2229 -0.5052,0.73601 -0.9656,1.14022 l -0.8371,0.73495 -6.31496,0 c -3.47325,0 -7.80249,-0.0714 -9.62055,-0.15854 l -3.30557,-0.15852 -0.45955,-0.74166 c -0.38305,-0.6182 -0.43334,-1.00142 -0.3021,-2.30198 0.24216,-2.40003 1.14311,-3.95109 3.38397,-5.82577 2.08981,-1.74836 5.37665,-5.06644 5.78538,-5.84043 0.16568,-0.31374 0.21234,-1.14503 0.12367,-2.20278 -0.12475,-1.48805 -0.20767,-1.71527 -0.66806,-1.83083 -1.57348,-0.39491 -1.9451,-5.22792 -0.93715,-12.18814 l 0.37112,-2.5628 -0.95228,-1.63807 c -0.52374,-0.90095 -1.47073,-3.09639 -2.10444,-4.87876 l -1.15216,-3.24066 0.0558,-3.97221 0.0558,-3.9722 -1.24172,-4.30951 c -1.18234,-4.10337 -1.2431,-4.45298 -1.27034,-7.31009 -0.0215,-2.2538 0.0753,-3.32512 0.38885,-4.30445 0.69718,-2.17741 0.5729,-3.14555 -0.64189,-5.00034 l -1.05936,-1.61745 -0.62701,-4.56093 c -0.34485,-2.50852 -0.8412,-6.07325 -1.10298,-7.92163 -0.26179,-1.84838 -0.68865,-5.30508 -0.94858,-7.68157 -0.2599,-2.37649 -0.74796,-5.77443 -1.08457,-7.55099 -0.87332,-4.60926 -2.97545,-13.18255 -3.47526,-14.17347 -0.23308,-0.46209 -0.93545,-3.27067 -1.56082,-6.24128 -1.08048,-5.13244 -2.25815,-10.3386 -2.78289,-12.30252 -0.19562,-0.73208 -0.35117,-0.90018 -0.833,-0.90018 -0.32584,0 -0.79672,0.24305 -1.0464,0.54011 -0.24964,0.29706 -0.70802,0.84157 -1.0186,1.21004 -0.45129,0.53538 -0.79567,0.68294 -1.71491,0.73476 -0.87683,0.0494 -1.30472,0.2192 -1.80037,0.71425 -2.11351,2.11099 -2.66363,2.42478 -4.42561,2.52434 -1.11146,0.0628 -2.19626,-0.0455 -3.21364,-0.32091 -1.40462,-0.38021 -1.68238,-0.57232 -3.25176,-2.24902 -2.71118,-2.89658 -2.59982,-2.56281 -2.60088,-7.79605 -8.4e-4,-4.22568 -0.0323,-4.54861 -0.48003,-4.92101 -0.472,-0.39263 -0.47997,-0.74306 -0.53662,-23.5633 -0.0653,-26.30391 -0.0104,-27.592974 2.0033,-47.049654 0.26646,-2.57452 0.6869,-7.27348 0.93432,-10.44213 0.24742,-3.16866 0.61124,-7.32751 0.80846,-9.2419 0.19725,-1.91439 0.42016,-4.29088 0.49539,-5.28108 0.89027,-11.71717 1.11649,-13.108299 2.42404,-14.906439 0.98495,-1.35449 6.09908,-5.91128 8.21108,-7.31623 1.08809,-0.72384 3.7373,-2.37482 5.88711,-3.66887 5.84954,-3.52102 7.32853,-4.54561 9.22785,-6.39276 l 1.73018,-1.68266 -0.20373,-2.61774 -0.20374,-2.61772 -1.20036,-1.10304 c -1.46703,-1.34805 -2.14393,-2.46816 -2.34149,-3.87468 -0.17698,-1.2600903 -0.40117,-1.9093203 -1.47603,-4.2743703 -1.56625,-3.44632 -2.01618,-5.64609 -2.2333,-10.91941 -0.28477,-6.9156697 0.17639,-9.1228097 2.50546,-11.9912597 0.5581,-0.68734 1.08401,-1.51976 1.16876,-1.84983 0.28602,-1.11439 1.06027,-2.07346 3.28205,-4.06552 2.62414,-2.35283 3.85802,-2.95247 7.15339,-3.47638 2.22636,-0.35395 2.75231,-0.3559 5.86903,-0.02166 4.63039,0.49656 5.6131,0.81048 6.96187,2.22387 0.59772,0.62636 1.37051,1.33375 1.71731,1.572 0.3468,0.23824 1.6212,1.75055 2.8322,3.36068 1.2109,1.61015 2.2905,2.98821 2.399,3.06239 0.5142,0.35118 1.3956,1.81911 1.3956,2.32419 0,0.31097 0.1795,0.91111 0.3989,1.33364 0.2194,0.42254 0.6551,2.0545797 0.9682,3.6267697 0.5522,2.77228 0.5578,2.9153 0.1856,4.74039 -0.4598,2.25421995 -1.8177,6.37253 -2.3883,7.24339 -0.2875,0.43886 -0.4493,1.35369 -0.5444,3.07909 -0.1329,2.41302 -0.1502,2.47128 -1.0161,3.4289503 -1.3842,1.53081 -1.6848,2.09072 -1.6848,3.13811 0,0.83596 0.1472,1.11767 1.0202,1.95354 2.9937,2.86607 4.8924,3.78901 14.3231,6.96248 8.8565,2.98027 18.2976,6.47355 19.2874,7.13653 1.3905,0.93143 2.2385,2.51383 2.6761,4.99424 0.925,5.24228 1.5294,7.38615 4.8353,17.150689 5.2752,15.58166 6.7515,20.29109 7.046,22.47745 0.1463,1.08596 0.4824,4.94508 0.7471,8.57583 0.2646,3.63074 0.5388,6.98028 0.6094,7.44342 0.2108,1.38297 -0.3469,12.543004 -0.8396,16.801544 -0.252,2.17845 -0.6335,5.63516 -0.8478,7.68158 -0.9704,9.26887 -3.2494,26.00697 -3.5871,26.34464 -0.0728,0.0728 -0.3773,0.26005 -0.6767,0.41622 -0.2994,0.15616 -0.5223,0.39511 -0.4955,0.531 0.0977,0.49332 -0.4211,4.77483 -0.6707,5.53585 -0.1735,0.5289 -0.5906,0.97715 -1.292,1.38816 -1.0754,0.63024 -3.2472,2.78438 -3.2472,3.22083 0,0.1373 -0.3747,0.66441 -0.8327,1.17134 -0.5826,0.64484 -1.4839,1.20063 -3.0006,1.85024 l -2.1679,0.92853 6e-4,4.21169 c 0.002,13.18933 1.4809,32.66448 3.3654,44.30926 1.1521,7.11883 1.2245,7.42708 2.1328,9.08092 0.8714,1.58687 2.3985,6.16521 3.6054,10.80951 0.9516,3.66188 1.2723,9.31093 1.3231,23.30909 0.0397,10.95536 0.1124,13.40497 0.4693,15.81898 0.2323,1.57098 0.6086,5.39436 0.8363,8.49641 l 0.4139,5.64007 -1.0324,0.45667 c -0.9652,0.42695 -1.0324,0.51836 -1.0324,1.40508 0,0.87608 0.1693,1.11776 2.2205,3.16941 1.8024,1.80287 2.4816,2.69999 3.6074,4.76519 1.3583,2.49165 2.0385,4.77716 1.7202,5.77999 -0.2023,0.63749 -1.6853,1.37898 -4.0468,2.02335 -1.8993,0.51824 -2.8168,0.60869 -7.102,0.70015 l -4.921,0.10502 z"
       id="path2689"
       inkscape:connector-curvature="0"
       sodipodi:nodetypes="sccssssssscccscccccsscssssssscccscsssscssscscsssscsscssscssssssssscsssscscccsscsssscccsscccsscssscsssssssscsccsccssssssssssssssscscsscccccscsssscscssccsssssssccssccsssscssccscsccscssscccscssssccscssscsssscscssssscscsccsscsssscsssccssssssscsssssscssscsscccsscssccssccsccccssccsscssscssscsccscsscsccscsccssssscsscsscscccsssscscsssscsccccccssscssssccccssssccccsscsccsssssscsscccssscsssscsscscssssssscsccccsssccsccccsccsssccccssccscsssccsscscscsscscsccccscccccsccsccsscsccsccccccccccccccscscsscsccsscsccscccsssscsscssscsccsssssscssscsssssccccsssscsssscccsscccccscsccsccccccccccsssccscsscccsscscsscsscs" />
    <path
       style="opacity:0.99588479;fill:#cc0000;fill-opacity:0;fill-rule:nonzero;stroke:#4e2fcc;stroke-width:1.39999998;stroke-linecap:square;stroke-linejoin:round;stroke-miterlimit:4;stroke-opacity:0;stroke-dasharray:none;stroke-dashoffset:0"
       d="m 345.11132,314.31121 c -3.80617,-1.05906 -3.58682,-3.74987 0.68514,-8.40496 7.28734,-7.9409 9.30961,-11.20923 9.30961,-15.0459 0,-2.9607 -0.37158,-3.65561 -1.95469,-3.65561 -2.41089,0 -2.57585,-0.88493 -4.5623,-24.47473 -2.38568,-28.33071 -4.01657,-37.22572 -10.23014,-55.79598 -3.08629,-9.2239 -5.9098,-16.4239 -6.27447,-16 -0.9302,1.08129 -2.92948,30.4843 -3.92816,57.77071 -0.65613,17.92703 -1.19427,23.66169 -2.43986,26 -0.87893,1.65 -1.60083,4.01911 -1.60422,5.2647 -0.0101,3.70112 -5.45631,6.46706 -11.31142,5.74464 -4.13498,-0.51018 -5.54135,-0.17174 -10.08228,2.42632 -3.87522,2.21717 -7.14616,3.19292 -12.31335,3.67316 -6.39087,0.59397 -7.23799,0.4523 -9.23463,-1.54434 -2.85496,-2.85496 -2.12871,-3.65719 7.61208,-8.40847 10.41655,-5.0809 12.33954,-7.89132 15.15995,-22.15601 5.31461,-26.87951 4.78423,-36.93562 -4.79951,-91 -2.18629,-12.33341 -3.01674,-20.17408 -3.02526,-28.56291 -0.0117,-11.52059 -0.0227,-11.57336 -2.99399,-14.42008 -5.87135,-5.62512 -6.31011,-8.50661 -5.74348,-37.719981 0.5087,-26.22717 2.44168,-44.480609 5.04763,-47.665564 0.61585,-0.752693 4.31052,-3.521653 8.21037,-6.153246 7.87243,-5.312256 13.46773,-11.081777 13.46773,-13.887064 0,-1.011588 -1.08,-3.80843 -2.4,-6.215204 -2.79751,-5.1007403 -4.28591,-11.5828723 -5.17277,-22.5279673 l -0.63591,-7.8479857 3.35434,-3.806134 c 3.00296,-3.407427 4.06535,-3.905137 10.14176,-4.751232 5.89433,-0.82074 7.27593,-0.694578 10.5,0.958816 6.27737,3.21921 8.05556,5.917609 9.33877,14.1715267 1.07525,6.916264 1.00083,7.851444 -0.98136,12.33251 -1.17966,2.666812 -2.14483,5.830845 -2.14483,7.031184 0,1.2147893 2.10605,4.4637633 4.75,7.3277583 4.18489,4.533177 5.73397,5.446957 13.02068,7.680671 10.97784,3.365223 16.0755,6.053986 16.71636,8.817061 3.78657,16.325926 6.97779,44.14796 6.22113,54.23784 -0.49282,6.57168 -0.90503,7.56003 -6.73683,16.152531 l -6.21189,9.15253 1.57795,13.34747 c 2.55458,21.60846 3.06228,30.48242 1.78899,31.26936 -0.61951,0.38288 -1.12639,2.88686 -1.12639,5.5644 0,4.87042 7.79472,50.82392 10.02706,59.11421 0.808,3.00068 1.14817,14.55722 1.0714,36.39806 -0.0619,17.60079 0.003,34.64498 0.14452,37.87598 0.25044,5.72408 0.17234,5.92013 -3.04911,7.6544 -1.81837,0.97891 -4.78886,3.30656 -6.60108,5.17255 -4.90386,5.04935 -14.54472,7.1429 -22.58754,4.90498 l 0,0 z"
       id="path3785"
       inkscape:connector-curvature="0" />
    <path
       style="opacity:0.7037037;fill:#cc0000;fill-opacity:0;fill-rule:nonzero;stroke:#4e2fcc;stroke-width:1.39999998;stroke-linecap:square;stroke-linejoin:round;stroke-miterlimit:4;stroke-opacity:0;stroke-dasharray:none;stroke-dashoffset:0"
       d="m 345.11132,314.31121 c -3.80617,-1.05906 -3.58682,-3.74987 0.68514,-8.40496 7.28734,-7.9409 9.30961,-11.20923 9.30961,-15.0459 0,-2.9607 -0.37158,-3.65561 -1.95469,-3.65561 -2.41089,0 -2.57585,-0.88493 -4.5623,-24.47473 -2.38568,-28.33071 -4.01657,-37.22572 -10.23014,-55.79598 -3.08629,-9.2239 -5.9098,-16.4239 -6.27447,-16 -0.9302,1.08129 -2.92948,30.4843 -3.92816,57.77071 -0.65613,17.92703 -1.19427,23.66169 -2.43986,26 -0.87893,1.65 -1.60083,4.01911 -1.60422,5.2647 -0.0101,3.70112 -5.45631,6.46706 -11.31142,5.74464 -4.13498,-0.51018 -5.54135,-0.17174 -10.08228,2.42632 -3.87522,2.21717 -7.14616,3.19292 -12.31335,3.67316 -6.39087,0.59397 -7.23799,0.4523 -9.23463,-1.54434 -2.85496,-2.85496 -2.12871,-3.65719 7.61208,-8.40847 10.41655,-5.0809 12.33954,-7.89132 15.15995,-22.15601 5.31461,-26.87951 4.78423,-36.93562 -4.79951,-91 -2.18629,-12.33341 -3.01674,-20.17408 -3.02526,-28.56291 -0.0117,-11.52059 -0.0227,-11.57336 -2.99399,-14.42008 -5.87135,-5.62512 -6.31011,-8.50661 -5.74348,-37.719981 0.5087,-26.22717 2.44168,-44.480609 5.04763,-47.665564 0.61585,-0.752693 4.31052,-3.521653 8.21037,-6.153246 7.87243,-5.312256 13.46773,-11.081777 13.46773,-13.887064 0,-1.011588 -1.08,-3.80843 -2.4,-6.215204 -2.79751,-5.1007403 -4.28591,-11.5828723 -5.17277,-22.5279673 l -0.63591,-7.8479857 3.35434,-3.806134 c 3.00296,-3.407427 4.06535,-3.905137 10.14176,-4.751232 5.89433,-0.82074 7.27593,-0.694578 10.5,0.958816 6.27737,3.21921 8.05556,5.917609 9.33877,14.1715267 1.07525,6.916264 1.00083,7.851444 -0.98136,12.33251 -1.17966,2.666812 -2.14483,5.830845 -2.14483,7.031184 0,1.2147893 2.10605,4.4637633 4.75,7.3277583 4.18489,4.533177 5.73397,5.446957 13.02068,7.680671 10.97784,3.365223 16.0755,6.053986 16.71636,8.817061 3.78657,16.325926 6.97779,44.14796 6.22113,54.23784 -0.49282,6.57168 -0.90503,7.56003 -6.73683,16.152531 l -6.21189,9.15253 1.57795,13.34747 c 2.55458,21.60846 3.06228,30.48242 1.78899,31.26936 -0.61951,0.38288 -1.12639,2.88686 -1.12639,5.5644 0,4.87042 7.79472,50.82392 10.02706,59.11421 0.808,3.00068 1.14817,14.55722 1.0714,36.39806 -0.0619,17.60079 0.003,34.64498 0.14452,37.87598 0.25044,5.72408 0.17234,5.92013 -3.04911,7.6544 -1.81837,0.97891 -4.78886,3.30656 -6.60108,5.17255 -4.90386,5.04935 -14.54472,7.1429 -22.58754,4.90498 l 0,0 z"
       id="path3787"
       inkscape:connector-curvature="0" />
    <path
       style="opacity:0.7037037;fill:#cc0000;fill-opacity:0;fill-rule:nonzero;stroke:#4e2fcc;stroke-width:1.39999998;stroke-linecap:square;stroke-linejoin:round;stroke-miterlimit:4;stroke-opacity:0;stroke-dasharray:none;stroke-dashoffset:0"
       d="m 345.11132,314.31121 c -3.80617,-1.05906 -3.58682,-3.74987 0.68514,-8.40496 7.28734,-7.9409 9.30961,-11.20923 9.30961,-15.0459 0,-2.9607 -0.37158,-3.65561 -1.95469,-3.65561 -2.41089,0 -2.57585,-0.88493 -4.5623,-24.47473 -2.38568,-28.33071 -4.01657,-37.22572 -10.23014,-55.79598 -3.08629,-9.2239 -5.9098,-16.4239 -6.27447,-16 -0.9302,1.08129 -2.92948,30.4843 -3.92816,57.77071 -0.65613,17.92703 -1.19427,23.66169 -2.43986,26 -0.87893,1.65 -1.60083,4.01911 -1.60422,5.2647 -0.0101,3.70112 -5.45631,6.46706 -11.31142,5.74464 -4.13498,-0.51018 -5.54135,-0.17174 -10.08228,2.42632 -3.87522,2.21717 -7.14616,3.19292 -12.31335,3.67316 -6.39087,0.59397 -7.23799,0.4523 -9.23463,-1.54434 -2.85496,-2.85496 -2.12871,-3.65719 7.61208,-8.40847 10.41655,-5.0809 12.33954,-7.89132 15.15995,-22.15601 5.31461,-26.87951 4.78423,-36.93562 -4.79951,-91 -2.18629,-12.33341 -3.01674,-20.17408 -3.02526,-28.56291 -0.0117,-11.52059 -0.0227,-11.57336 -2.99399,-14.42008 -5.87135,-5.62512 -6.31011,-8.50661 -5.74348,-37.719981 0.5087,-26.22717 2.44168,-44.480609 5.04763,-47.665564 0.61585,-0.752693 4.31052,-3.521653 8.21037,-6.153246 7.87243,-5.312256 13.46773,-11.081777 13.46773,-13.887064 0,-1.011588 -1.08,-3.80843 -2.4,-6.215204 -2.79751,-5.1007403 -4.28591,-11.5828723 -5.17277,-22.5279673 l -0.63591,-7.8479857 3.35434,-3.806134 c 3.00296,-3.407427 4.06535,-3.905137 10.14176,-4.751232 5.89433,-0.82074 7.27593,-0.694578 10.5,0.958816 6.27737,3.21921 8.05556,5.917609 9.33877,14.1715267 1.07525,6.916264 1.00083,7.851444 -0.98136,12.33251 -1.17966,2.666812 -2.14483,5.830845 -2.14483,7.031184 0,1.2147893 2.10605,4.4637633 4.75,7.3277583 4.18489,4.533177 5.73397,5.446957 13.02068,7.680671 10.97784,3.365223 16.0755,6.053986 16.71636,8.817061 3.78657,16.325926 6.97779,44.14796 6.22113,54.23784 -0.49282,6.57168 -0.90503,7.56003 -6.73683,16.152531 l -6.21189,9.15253 1.57795,13.34747 c 2.55458,21.60846 3.06228,30.48242 1.78899,31.26936 -0.61951,0.38288 -1.12639,2.88686 -1.12639,5.5644 0,4.87042 7.79472,50.82392 10.02706,59.11421 0.808,3.00068 1.14817,14.55722 1.0714,36.39806 -0.0619,17.60079 0.003,34.64498 0.14452,37.87598 0.25044,5.72408 0.17234,5.92013 -3.04911,7.6544 -1.81837,0.97891 -4.78886,3.30656 -6.60108,5.17255 -4.90386,5.04935 -14.54472,7.1429 -22.58754,4.90498 l 0,0 z"
       id="path3789"
       inkscape:connector-curvature="0" />
    <path
       style="opacity:0.7037037;fill:#cc0000;fill-opacity:0;fill-rule:nonzero;stroke:#4e2fcc;stroke-width:1.39999998;stroke-linecap:square;stroke-linejoin:round;stroke-miterlimit:4;stroke-opacity:0;stroke-dasharray:none;stroke-dashoffset:0"
       d="m 345.11132,314.31121 c -3.80617,-1.05906 -3.58682,-3.74987 0.68514,-8.40496 7.28734,-7.9409 9.30961,-11.20923 9.30961,-15.0459 0,-2.9607 -0.37158,-3.65561 -1.95469,-3.65561 -2.41089,0 -2.57585,-0.88493 -4.5623,-24.47473 -2.38568,-28.33071 -4.01657,-37.22572 -10.23014,-55.79598 -3.08629,-9.2239 -5.9098,-16.4239 -6.27447,-16 -0.9302,1.08129 -2.92948,30.4843 -3.92816,57.77071 -0.65613,17.92703 -1.19427,23.66169 -2.43986,26 -0.87893,1.65 -1.60083,4.01911 -1.60422,5.2647 -0.0101,3.70112 -5.45631,6.46706 -11.31142,5.74464 -4.13498,-0.51018 -5.54135,-0.17174 -10.08228,2.42632 -3.87522,2.21717 -7.14616,3.19292 -12.31335,3.67316 -6.39087,0.59397 -7.23799,0.4523 -9.23463,-1.54434 -2.85496,-2.85496 -2.12871,-3.65719 7.61208,-8.40847 10.41655,-5.0809 12.33954,-7.89132 15.15995,-22.15601 5.31461,-26.87951 4.78423,-36.93562 -4.79951,-91 -2.18629,-12.33341 -3.01674,-20.17408 -3.02526,-28.56291 -0.0117,-11.52059 -0.0227,-11.57336 -2.99399,-14.42008 -5.87135,-5.62512 -6.31011,-8.50661 -5.74348,-37.719981 0.5087,-26.22717 2.44168,-44.480609 5.04763,-47.665564 0.61585,-0.752693 4.31052,-3.521653 8.21037,-6.153246 7.87243,-5.312256 13.46773,-11.081777 13.46773,-13.887064 0,-1.011588 -1.08,-3.80843 -2.4,-6.215204 -2.79751,-5.1007403 -4.28591,-11.5828723 -5.17277,-22.5279673 l -0.63591,-7.8479857 3.35434,-3.806134 c 3.00296,-3.407427 4.06535,-3.905137 10.14176,-4.751232 5.89433,-0.82074 7.27593,-0.694578 10.5,0.958816 6.27737,3.21921 8.05556,5.917609 9.33877,14.1715267 1.07525,6.916264 1.00083,7.851444 -0.98136,12.33251 -1.17966,2.666812 -2.14483,5.830845 -2.14483,7.031184 0,1.2147893 2.10605,4.4637633 4.75,7.3277583 4.18489,4.533177 5.73397,5.446957 13.02068,7.680671 10.97784,3.365223 16.0755,6.053986 16.71636,8.817061 3.78657,16.325926 6.97779,44.14796 6.22113,54.23784 -0.49282,6.57168 -0.90503,7.56003 -6.73683,16.152531 l -6.21189,9.15253 1.57795,13.34747 c 2.55458,21.60846 3.06228,30.48242 1.78899,31.26936 -0.61951,0.38288 -1.12639,2.88686 -1.12639,5.5644 0,4.87042 7.79472,50.82392 10.02706,59.11421 0.808,3.00068 1.14817,14.55722 1.0714,36.39806 -0.0619,17.60079 0.003,34.64498 0.14452,37.87598 0.25044,5.72408 0.17234,5.92013 -3.04911,7.6544 -1.81837,0.97891 -4.78886,3.30656 -6.60108,5.17255 -4.90386,5.04935 -14.54472,7.1429 -22.58754,4.90498 l 0,0 z"
       id="path3791"
       inkscape:connector-curvature="0" />
    <path
       style="opacity:0.7037037;fill:#cc0000;fill-opacity:0;fill-rule:nonzero;stroke:#4e2fcc;stroke-width:1.39999998;stroke-linecap:square;stroke-linejoin:round;stroke-miterlimit:4;stroke-opacity:0;stroke-dasharray:none;stroke-dashoffset:0"
       d="m 345.11132,314.31121 c -3.80617,-1.05906 -3.58682,-3.74987 0.68514,-8.40496 7.28734,-7.9409 9.30961,-11.20923 9.30961,-15.0459 0,-2.9607 -0.37158,-3.65561 -1.95469,-3.65561 -2.41089,0 -2.57585,-0.88493 -4.5623,-24.47473 -2.38568,-28.33071 -4.01657,-37.22572 -10.23014,-55.79598 -3.08629,-9.2239 -5.9098,-16.4239 -6.27447,-16 -0.9302,1.08129 -2.92948,30.4843 -3.92816,57.77071 -0.65613,17.92703 -1.19427,23.66169 -2.43986,26 -0.87893,1.65 -1.60083,4.01911 -1.60422,5.2647 -0.0101,3.70112 -5.45631,6.46706 -11.31142,5.74464 -4.13498,-0.51018 -5.54135,-0.17174 -10.08228,2.42632 -3.87522,2.21717 -7.14616,3.19292 -12.31335,3.67316 -6.39087,0.59397 -7.23799,0.4523 -9.23463,-1.54434 -2.85496,-2.85496 -2.12871,-3.65719 7.61208,-8.40847 10.41655,-5.0809 12.33954,-7.89132 15.15995,-22.15601 5.31461,-26.87951 4.78423,-36.93562 -4.79951,-91 -2.18629,-12.33341 -3.01674,-20.17408 -3.02526,-28.56291 -0.0117,-11.52059 -0.0227,-11.57336 -2.99399,-14.42008 -5.87135,-5.62512 -6.31011,-8.50661 -5.74348,-37.719981 0.5087,-26.22717 2.44168,-44.480609 5.04763,-47.665564 0.61585,-0.752693 4.31052,-3.521653 8.21037,-6.153246 7.87243,-5.312256 13.46773,-11.081777 13.46773,-13.887064 0,-1.011588 -1.08,-3.80843 -2.4,-6.215204 -2.79751,-5.1007403 -4.28591,-11.5828723 -5.17277,-22.5279673 l -0.63591,-7.8479857 3.35434,-3.806134 c 3.00296,-3.407427 4.06535,-3.905137 10.14176,-4.751232 5.89433,-0.82074 7.27593,-0.694578 10.5,0.958816 6.27737,3.21921 8.05556,5.917609 9.33877,14.1715267 1.07525,6.916264 1.00083,7.851444 -0.98136,12.33251 -1.17966,2.666812 -2.14483,5.830845 -2.14483,7.031184 0,1.2147893 2.10605,4.4637633 4.75,7.3277583 4.18489,4.533177 5.73397,5.446957 13.02068,7.680671 10.97784,3.365223 16.0755,6.053986 16.71636,8.817061 3.78657,16.325926 6.97779,44.14796 6.22113,54.23784 -0.49282,6.57168 -0.90503,7.56003 -6.73683,16.152531 l -6.21189,9.15253 1.57795,13.34747 c 2.55458,21.60846 3.06228,30.48242 1.78899,31.26936 -0.61951,0.38288 -1.12639,2.88686 -1.12639,5.5644 0,4.87042 7.79472,50.82392 10.02706,59.11421 0.808,3.00068 1.14817,14.55722 1.0714,36.39806 -0.0619,17.60079 0.003,34.64498 0.14452,37.87598 0.25044,5.72408 0.17234,5.92013 -3.04911,7.6544 -1.81837,0.97891 -4.78886,3.30656 -6.60108,5.17255 -4.90386,5.04935 -14.54472,7.1429 -22.58754,4.90498 l 0,0 z"
       id="path3801"
       inkscape:connector-curvature="0" />
    <path
       style="opacity:0.7037037;fill:#cc0000;fill-opacity:0;fill-rule:nonzero;stroke:#4e2fcc;stroke-width:1.39999998;stroke-linecap:square;stroke-linejoin:round;stroke-miterlimit:4;stroke-opacity:0;stroke-dasharray:none;stroke-dashoffset:0"
       d="m 345.11132,314.31121 c -3.80617,-1.05906 -3.58682,-3.74987 0.68514,-8.40496 7.28734,-7.9409 9.30961,-11.20923 9.30961,-15.0459 0,-2.9607 -0.37158,-3.65561 -1.95469,-3.65561 -2.41089,0 -2.57585,-0.88493 -4.5623,-24.47473 -2.38568,-28.33071 -4.01657,-37.22572 -10.23014,-55.79598 -3.08629,-9.2239 -5.9098,-16.4239 -6.27447,-16 -0.9302,1.08129 -2.92948,30.4843 -3.92816,57.77071 -0.65613,17.92703 -1.19427,23.66169 -2.43986,26 -0.87893,1.65 -1.60083,4.01911 -1.60422,5.2647 -0.0101,3.70112 -5.45631,6.46706 -11.31142,5.74464 -4.13498,-0.51018 -5.54135,-0.17174 -10.08228,2.42632 -3.87522,2.21717 -7.14616,3.19292 -12.31335,3.67316 -6.39087,0.59397 -7.23799,0.4523 -9.23463,-1.54434 -2.85496,-2.85496 -2.12871,-3.65719 7.61208,-8.40847 10.41655,-5.0809 12.33954,-7.89132 15.15995,-22.15601 5.31461,-26.87951 4.78423,-36.93562 -4.79951,-91 -2.18629,-12.33341 -3.01674,-20.17408 -3.02526,-28.56291 -0.0117,-11.52059 -0.0227,-11.57336 -2.99399,-14.42008 -5.87135,-5.62512 -6.31011,-8.50661 -5.74348,-37.719981 0.5087,-26.22717 2.44168,-44.480609 5.04763,-47.665564 0.61585,-0.752693 4.31052,-3.521653 8.21037,-6.153246 7.87243,-5.312256 13.46773,-11.081777 13.46773,-13.887064 0,-1.011588 -1.08,-3.80843 -2.4,-6.215204 -2.79751,-5.1007403 -4.28591,-11.5828723 -5.17277,-22.5279673 l -0.63591,-7.8479857 3.35434,-3.806134 c 3.00296,-3.407427 4.06535,-3.905137 10.14176,-4.751232 5.89433,-0.82074 7.27593,-0.694578 10.5,0.958816 6.27737,3.21921 8.05556,5.917609 9.33877,14.1715267 1.07525,6.916264 1.00083,7.851444 -0.98136,12.33251 -1.17966,2.666812 -2.14483,5.830845 -2.14483,7.031184 0,1.2147893 2.10605,4.4637633 4.75,7.3277583 4.18489,4.533177 5.73397,5.446957 13.02068,7.680671 10.97784,3.365223 16.0755,6.053986 16.71636,8.817061 3.78657,16.325926 6.97779,44.14796 6.22113,54.23784 -0.49282,6.57168 -0.90503,7.56003 -6.73683,16.152531 l -6.21189,9.15253 1.57795,13.34747 c 2.55458,21.60846 3.06228,30.48242 1.78899,31.26936 -0.61951,0.38288 -1.12639,2.88686 -1.12639,5.5644 0,4.87042 7.79472,50.82392 10.02706,59.11421 0.808,3.00068 1.14817,14.55722 1.0714,36.39806 -0.0619,17.60079 0.003,34.64498 0.14452,37.87598 0.25044,5.72408 0.17234,5.92013 -3.04911,7.6544 -1.81837,0.97891 -4.78886,3.30656 -6.60108,5.17255 -4.90386,5.04935 -14.54472,7.1429 -22.58754,4.90498 l 0,0 z"
       id="path3803"
       inkscape:connector-curvature="0" />
    <path
       style="opacity:0.7037037;fill:#cc0000;fill-opacity:0;fill-rule:nonzero;stroke:#4e2fcc;stroke-width:1.39999998;stroke-linecap:square;stroke-linejoin:round;stroke-miterlimit:4;stroke-opacity:0;stroke-dasharray:none;stroke-dashoffset:0"
       d="m 345.11132,314.31121 c -3.80617,-1.05906 -3.58682,-3.74987 0.68514,-8.40496 7.28734,-7.9409 9.30961,-11.20923 9.30961,-15.0459 0,-2.9607 -0.37158,-3.65561 -1.95469,-3.65561 -2.41089,0 -2.57585,-0.88493 -4.5623,-24.47473 -2.38568,-28.33071 -4.01657,-37.22572 -10.23014,-55.79598 -3.08629,-9.2239 -5.9098,-16.4239 -6.27447,-16 -0.9302,1.08129 -2.92948,30.4843 -3.92816,57.77071 -0.65613,17.92703 -1.19427,23.66169 -2.43986,26 -0.87893,1.65 -1.60083,4.01911 -1.60422,5.2647 -0.0101,3.70112 -5.45631,6.46706 -11.31142,5.74464 -4.13498,-0.51018 -5.54135,-0.17174 -10.08228,2.42632 -3.87522,2.21717 -7.14616,3.19292 -12.31335,3.67316 -6.39087,0.59397 -7.23799,0.4523 -9.23463,-1.54434 -2.85496,-2.85496 -2.12871,-3.65719 7.61208,-8.40847 10.41655,-5.0809 12.33954,-7.89132 15.15995,-22.15601 5.31461,-26.87951 4.78423,-36.93562 -4.79951,-91 -2.18629,-12.33341 -3.01674,-20.17408 -3.02526,-28.56291 -0.0117,-11.52059 -0.0227,-11.57336 -2.99399,-14.42008 -5.87135,-5.62512 -6.31011,-8.50661 -5.74348,-37.719981 0.5087,-26.22717 2.44168,-44.480609 5.04763,-47.665564 0.61585,-0.752693 4.31052,-3.521653 8.21037,-6.153246 7.87243,-5.312256 13.46773,-11.081777 13.46773,-13.887064 0,-1.011588 -1.08,-3.80843 -2.4,-6.215204 -2.79751,-5.1007403 -4.28591,-11.5828723 -5.17277,-22.5279673 l -0.63591,-7.8479857 3.35434,-3.806134 c 3.00296,-3.407427 4.06535,-3.905137 10.14176,-4.751232 5.89433,-0.82074 7.27593,-0.694578 10.5,0.958816 6.27737,3.21921 8.05556,5.917609 9.33877,14.1715267 1.07525,6.916264 1.00083,7.851444 -0.98136,12.33251 -1.17966,2.666812 -2.14483,5.830845 -2.14483,7.031184 0,1.2147893 2.10605,4.4637633 4.75,7.3277583 4.18489,4.533177 5.73397,5.446957 13.02068,7.680671 10.97784,3.365223 16.0755,6.053986 16.71636,8.817061 3.78657,16.325926 6.97779,44.14796 6.22113,54.23784 -0.49282,6.57168 -0.90503,7.56003 -6.73683,16.152531 l -6.21189,9.15253 1.57795,13.34747 c 2.55458,21.60846 3.06228,30.48242 1.78899,31.26936 -0.61951,0.38288 -1.12639,2.88686 -1.12639,5.5644 0,4.87042 7.79472,50.82392 10.02706,59.11421 0.808,3.00068 1.14817,14.55722 1.0714,36.39806 -0.0619,17.60079 0.003,34.64498 0.14452,37.87598 0.25044,5.72408 0.17234,5.92013 -3.04911,7.6544 -1.81837,0.97891 -4.78886,3.30656 -6.60108,5.17255 -4.90386,5.04935 -14.54472,7.1429 -22.58754,4.90498 l 0,0 z"
       id="path3816"
       inkscape:connector-curvature="0" />
    <path
       style="opacity:0.7037037;fill:#cc0000;fill-opacity:0;fill-rule:nonzero;stroke:#4e2fcc;stroke-width:1.39999998;stroke-linecap:square;stroke-linejoin:round;stroke-miterlimit:4;stroke-opacity:0;stroke-dasharray:none;stroke-dashoffset:0"
       d="m 345.11132,314.31121 c -3.80617,-1.05906 -3.58682,-3.74987 0.68514,-8.40496 7.28734,-7.9409 9.30961,-11.20923 9.30961,-15.0459 0,-2.9607 -0.37158,-3.65561 -1.95469,-3.65561 -2.41089,0 -2.57585,-0.88493 -4.5623,-24.47473 -2.38568,-28.33071 -4.01657,-37.22572 -10.23014,-55.79598 -3.08629,-9.2239 -5.9098,-16.4239 -6.27447,-16 -0.9302,1.08129 -2.92948,30.4843 -3.92816,57.77071 -0.65613,17.92703 -1.19427,23.66169 -2.43986,26 -0.87893,1.65 -1.60083,4.01911 -1.60422,5.2647 -0.0101,3.70112 -5.45631,6.46706 -11.31142,5.74464 -4.13498,-0.51018 -5.54135,-0.17174 -10.08228,2.42632 -3.87522,2.21717 -7.14616,3.19292 -12.31335,3.67316 -6.39087,0.59397 -7.23799,0.4523 -9.23463,-1.54434 -2.85496,-2.85496 -2.12871,-3.65719 7.61208,-8.40847 10.41655,-5.0809 12.33954,-7.89132 15.15995,-22.15601 5.31461,-26.87951 4.78423,-36.93562 -4.79951,-91 -2.18629,-12.33341 -3.01674,-20.17408 -3.02526,-28.56291 -0.0117,-11.52059 -0.0227,-11.57336 -2.99399,-14.42008 -5.87135,-5.62512 -6.31011,-8.50661 -5.74348,-37.719981 0.5087,-26.22717 2.44168,-44.480609 5.04763,-47.665564 0.61585,-0.752693 4.31052,-3.521653 8.21037,-6.153246 7.87243,-5.312256 13.46773,-11.081777 13.46773,-13.887064 0,-1.011588 -1.08,-3.80843 -2.4,-6.215204 -2.79751,-5.1007403 -4.28591,-11.5828723 -5.17277,-22.5279673 l -0.63591,-7.8479857 3.35434,-3.806134 c 3.00296,-3.407427 4.06535,-3.905137 10.14176,-4.751232 5.89433,-0.82074 7.27593,-0.694578 10.5,0.958816 6.27737,3.21921 8.05556,5.917609 9.33877,14.1715267 1.07525,6.916264 1.00083,7.851444 -0.98136,12.33251 -1.17966,2.666812 -2.14483,5.830845 -2.14483,7.031184 0,1.2147893 2.10605,4.4637633 4.75,7.3277583 4.18489,4.533177 5.73397,5.446957 13.02068,7.680671 10.97784,3.365223 16.0755,6.053986 16.71636,8.817061 3.78657,16.325926 6.97779,44.14796 6.22113,54.23784 -0.49282,6.57168 -0.90503,7.56003 -6.73683,16.152531 l -6.21189,9.15253 1.57795,13.34747 c 2.55458,21.60846 3.06228,30.48242 1.78899,31.26936 -0.61951,0.38288 -1.12639,2.88686 -1.12639,5.5644 0,4.87042 7.79472,50.82392 10.02706,59.11421 0.808,3.00068 1.14817,14.55722 1.0714,36.39806 -0.0619,17.60079 0.003,34.64498 0.14452,37.87598 0.25044,5.72408 0.17234,5.92013 -3.04911,7.6544 -1.81837,0.97891 -4.78886,3.30656 -6.60108,5.17255 -4.90386,5.04935 -14.54472,7.1429 -22.58754,4.90498 l 0,0 z"
       id="path3818"
       inkscape:connector-curvature="0" />
    <path
       style="opacity:0.7037037;fill:#cc0000;fill-opacity:0;fill-rule:nonzero;stroke:#4e2fcc;stroke-width:1.39999998;stroke-linecap:square;stroke-linejoin:round;stroke-miterlimit:4;stroke-opacity:0;stroke-dasharray:none;stroke-dashoffset:0"
       d="m 345.11132,314.31121 c -3.80617,-1.05906 -3.58682,-3.74987 0.68514,-8.40496 7.28734,-7.9409 9.30961,-11.20923 9.30961,-15.0459 0,-2.9607 -0.37158,-3.65561 -1.95469,-3.65561 -2.41089,0 -2.57585,-0.88493 -4.5623,-24.47473 -2.38568,-28.33071 -4.01657,-37.22572 -10.23014,-55.79598 -3.08629,-9.2239 -5.9098,-16.4239 -6.27447,-16 -0.9302,1.08129 -2.92948,30.4843 -3.92816,57.77071 -0.65613,17.92703 -1.19427,23.66169 -2.43986,26 -0.87893,1.65 -1.60083,4.01911 -1.60422,5.2647 -0.0101,3.70112 -5.45631,6.46706 -11.31142,5.74464 -4.13498,-0.51018 -5.54135,-0.17174 -10.08228,2.42632 -3.87522,2.21717 -7.14616,3.19292 -12.31335,3.67316 -6.39087,0.59397 -7.23799,0.4523 -9.23463,-1.54434 -2.85496,-2.85496 -2.12871,-3.65719 7.61208,-8.40847 10.41655,-5.0809 12.33954,-7.89132 15.15995,-22.15601 5.31461,-26.87951 4.78423,-36.93562 -4.79951,-91 -2.18629,-12.33341 -3.01674,-20.17408 -3.02526,-28.56291 -0.0117,-11.52059 -0.0227,-11.57336 -2.99399,-14.42008 -5.87135,-5.62512 -6.31011,-8.50661 -5.74348,-37.719981 0.5087,-26.22717 2.44168,-44.480609 5.04763,-47.665564 0.61585,-0.752693 4.31052,-3.521653 8.21037,-6.153246 7.87243,-5.312256 13.46773,-11.081777 13.46773,-13.887064 0,-1.011588 -1.08,-3.80843 -2.4,-6.215204 -2.79751,-5.1007403 -4.28591,-11.5828723 -5.17277,-22.5279673 l -0.63591,-7.8479857 3.35434,-3.806134 c 3.00296,-3.407427 4.06535,-3.905137 10.14176,-4.751232 5.89433,-0.82074 7.27593,-0.694578 10.5,0.958816 6.27737,3.21921 8.05556,5.917609 9.33877,14.1715267 1.07525,6.916264 1.00083,7.851444 -0.98136,12.33251 -1.17966,2.666812 -2.14483,5.830845 -2.14483,7.031184 0,1.2147893 2.10605,4.4637633 4.75,7.3277583 4.18489,4.533177 5.73397,5.446957 13.02068,7.680671 10.97784,3.365223 16.0755,6.053986 16.71636,8.817061 3.78657,16.325926 6.97779,44.14796 6.22113,54.23784 -0.49282,6.57168 -0.90503,7.56003 -6.73683,16.152531 l -6.21189,9.15253 1.57795,13.34747 c 2.55458,21.60846 3.06228,30.48242 1.78899,31.26936 -0.61951,0.38288 -1.12639,2.88686 -1.12639,5.5644 0,4.87042 7.79472,50.82392 10.02706,59.11421 0.808,3.00068 1.14817,14.55722 1.0714,36.39806 -0.0619,17.60079 0.003,34.64498 0.14452,37.87598 0.25044,5.72408 0.17234,5.92013 -3.04911,7.6544 -1.81837,0.97891 -4.78886,3.30656 -6.60108,5.17255 -4.90386,5.04935 -14.54472,7.1429 -22.58754,4.90498 l 0,0 z"
       id="path3831"
       inkscape:connector-curvature="0" />
    <path
       style="fill:#cc0000;fill-opacity:0;fill-rule:nonzero;stroke:#4e2fcc;stroke-width:1.39999998;stroke-linecap:square;stroke-linejoin:round;stroke-miterlimit:4;stroke-opacity:0;stroke-dasharray:none;stroke-dashoffset:0"
       d="m 345.11132,314.31121 c -3.80617,-1.05906 -3.58682,-3.74987 0.68514,-8.40496 7.28734,-7.9409 9.30961,-11.20923 9.30961,-15.0459 0,-2.9607 -0.37158,-3.65561 -1.95469,-3.65561 -2.41089,0 -2.57585,-0.88493 -4.5623,-24.47473 -2.38568,-28.33071 -4.01657,-37.22572 -10.23014,-55.79598 -3.08629,-9.2239 -5.9098,-16.4239 -6.27447,-16 -0.9302,1.08129 -2.92948,30.4843 -3.92816,57.77071 -0.65613,17.92703 -1.19427,23.66169 -2.43986,26 -0.87893,1.65 -1.60083,4.01911 -1.60422,5.2647 -0.0101,3.70112 -5.45631,6.46706 -11.31142,5.74464 -4.13498,-0.51018 -5.54135,-0.17174 -10.08228,2.42632 -3.87522,2.21717 -7.14616,3.19292 -12.31335,3.67316 -6.39087,0.59397 -7.23799,0.4523 -9.23463,-1.54434 -2.85496,-2.85496 -2.12871,-3.65719 7.61208,-8.40847 10.41655,-5.0809 12.33954,-7.89132 15.15995,-22.15601 5.31461,-26.87951 4.78423,-36.93562 -4.79951,-91 -2.18629,-12.33341 -3.01674,-20.17408 -3.02526,-28.56291 -0.0117,-11.52059 -0.0227,-11.57336 -2.99399,-14.42008 -5.87135,-5.62512 -6.31011,-8.50661 -5.74348,-37.719981 0.5087,-26.22717 2.44168,-44.480609 5.04763,-47.665564 0.61585,-0.752693 4.31052,-3.521653 8.21037,-6.153246 7.87243,-5.312256 13.46773,-11.081777 13.46773,-13.887064 0,-1.011588 -1.08,-3.80843 -2.4,-6.215204 -2.79751,-5.1007403 -4.28591,-11.5828723 -5.17277,-22.5279673 l -0.63591,-7.8479857 3.35434,-3.806134 c 3.00296,-3.407427 4.06535,-3.905137 10.14176,-4.751232 5.89433,-0.82074 7.27593,-0.694578 10.5,0.958816 6.27737,3.21921 8.05556,5.917609 9.33877,14.1715267 1.07525,6.916264 1.00083,7.851444 -0.98136,12.33251 -1.17966,2.666812 -2.14483,5.830845 -2.14483,7.031184 0,1.2147893 2.10605,4.4637633 4.75,7.3277583 4.18489,4.533177 5.73397,5.446957 13.02068,7.680671 10.97784,3.365223 16.0755,6.053986 16.71636,8.817061 3.78657,16.325926 6.97779,44.14796 6.22113,54.23784 -0.49282,6.57168 -0.90503,7.56003 -6.73683,16.152531 l -6.21189,9.15253 1.57795,13.34747 c 2.55458,21.60846 3.06228,30.48242 1.78899,31.26936 -0.61951,0.38288 -1.12639,2.88686 -1.12639,5.5644 0,4.87042 7.79472,50.82392 10.02706,59.11421 0.808,3.00068 1.14817,14.55722 1.0714,36.39806 -0.0619,17.60079 0.003,34.64498 0.14452,37.87598 0.25044,5.72408 0.17234,5.92013 -3.04911,7.6544 -1.81837,0.97891 -4.78886,3.30656 -6.60108,5.17255 -4.90386,5.04935 -14.54472,7.1429 -22.58754,4.90498 l 0,0 z"
       id="path3873"
       inkscape:connector-curvature="0" />
    <path
       style="fill:#000000;fill-opacity:1;fill-rule:nonzero;stroke:#4e2fcc;stroke-width:1.39999998;stroke-linecap:square;stroke-linejoin:round;stroke-miterlimit:4;stroke-opacity:0;stroke-dasharray:none;stroke-dashoffset:0"
       d="m 345.11132,314.31121 c -3.80617,-1.05906 -3.58682,-3.74987 0.68514,-8.40496 7.28734,-7.9409 9.30961,-11.20923 9.30961,-15.0459 0,-2.9607 -0.37158,-3.65561 -1.95469,-3.65561 -2.41089,0 -2.57585,-0.88493 -4.5623,-24.47473 -2.38568,-28.33071 -4.01657,-37.22572 -10.23014,-55.79598 -3.08629,-9.2239 -5.9098,-16.4239 -6.27447,-16 -0.9302,1.08129 -2.92948,30.4843 -3.92816,57.77071 -0.65613,17.92703 -1.19427,23.66169 -2.43986,26 -0.87893,1.65 -1.60083,4.01911 -1.60422,5.2647 -0.0101,3.70112 -5.45631,6.46706 -11.31142,5.74464 -4.13498,-0.51018 -5.54135,-0.17174 -10.08228,2.42632 -3.87522,2.21717 -7.14616,3.19292 -12.31335,3.67316 -6.39087,0.59397 -7.23799,0.4523 -9.23463,-1.54434 -2.85496,-2.85496 -2.12871,-3.65719 7.61208,-8.40847 10.41655,-5.0809 12.33954,-7.89132 15.15995,-22.15601 5.31461,-26.87951 4.78423,-36.93562 -4.79951,-91 -2.18629,-12.33341 -3.01674,-20.17408 -3.02526,-28.56291 -0.0117,-11.52059 -0.0227,-11.57336 -2.99399,-14.42008 -5.87135,-5.62512 -6.31011,-8.50661 -5.74348,-37.719981 0.5087,-26.22717 2.44168,-44.480609 5.04763,-47.665564 0.61585,-0.752693 4.31052,-3.521653 8.21037,-6.153246 7.87243,-5.312256 13.46773,-11.081777 13.46773,-13.887064 0,-1.011588 -1.08,-3.80843 -2.4,-6.215204 -2.79751,-5.1007403 -4.28591,-11.5828723 -5.17277,-22.5279673 l -0.63591,-7.8479857 3.35434,-3.806134 c 3.00296,-3.407427 4.06535,-3.905137 10.14176,-4.751232 5.89433,-0.82074 7.27593,-0.694578 10.5,0.958816 6.27737,3.21921 8.05556,5.917609 9.33877,14.1715267 1.07525,6.916264 1.00083,7.851444 -0.98136,12.33251 -1.17966,2.666812 -2.14483,5.830845 -2.14483,7.031184 0,1.2147893 2.10605,4.4637633 4.75,7.3277583 4.18489,4.533177 5.73397,5.446957 13.02068,7.680671 10.97784,3.365223 16.0755,6.053986 16.71636,8.817061 3.78657,16.325926 6.97779,44.14796 6.22113,54.23784 -0.49282,6.57168 -0.90503,7.56003 -6.73683,16.152531 l -6.21189,9.15253 1.57795,13.34747 c 2.55458,21.60846 3.06228,30.48242 1.78899,31.26936 -0.61951,0.38288 -1.12639,2.88686 -1.12639,5.5644 0,4.87042 7.79472,50.82392 10.02706,59.11421 0.808,3.00068 1.14817,14.55722 1.0714,36.39806 -0.0619,17.60079 0.003,34.64498 0.14452,37.87598 0.25044,5.72408 0.17234,5.92013 -3.04911,7.6544 -1.81837,0.97891 -4.78886,3.30656 -6.60108,5.17255 -4.90386,5.04935 -14.54472,7.1429 -22.58754,4.90498 l 0,0 z"
       id="path3875"
       inkscape:connector-curvature="0" />
    <path
       style="fill:#669900;fill-opacity:1;fill-rule:nonzero;stroke:#000000;stroke-width:2;stroke-miterlimit:4;stroke-opacity:1;stroke-dasharray:none"
       d="m 345.11132,314.31121 c -4.08204,-1.13583 -3.51445,-3.71601 2.28056,-10.36697 6.48571,-7.44369 7.71419,-9.62122 7.71419,-13.67376 0,-2.37538 -0.44017,-3.06574 -1.95469,-3.06574 -2.39751,0 -2.53609,-0.73965 -4.59048,-24.5 -2.40602,-27.82711 -4.12109,-37.40533 -9.66921,-54 -2.75823,-8.25 -5.38311,-15.675 -5.83305,-16.5 -0.72717,-1.33333 -0.871,-1.33333 -1.29446,0 -0.81215,2.55724 -2.71707,32.39031 -3.60767,56.5 -0.66062,17.8838 -1.20424,23.66733 -2.44386,26 -0.87684,1.65 -1.59703,4.01911 -1.60042,5.2647 -0.0101,3.69912 -5.4479,6.46832 -11.43066,5.82101 -4.19109,-0.45346 -5.69265,-0.0933 -10.08228,2.41817 -3.7533,2.14742 -7.07379,3.12905 -12.19411,3.60494 -6.36601,0.59166 -7.24286,0.44743 -9.2042,-1.51391 -1.19232,-1.19232 -1.89242,-2.61353 -1.55577,-3.15824 0.33665,-0.54471 4.11605,-2.75214 8.39867,-4.9054 7.45583,-3.74872 12.32699,-8.01469 13.44646,-11.77587 4.21886,-14.17451 6.54756,-33.96309 5.56097,-47.2554 -0.79325,-10.68736 -4.17008,-33.66975 -8.522,-58 -1.6319,-9.1234 -2.41612,-17.24861 -2.41899,-25.06291 -0.004,-11.52468 -0.0141,-11.57235 -2.9865,-14.42008 -5.87135,-5.62512 -6.31011,-8.50661 -5.74348,-37.719981 0.5087,-26.22717 2.44168,-44.480609 5.04763,-47.665564 0.61585,-0.752693 4.31052,-3.521653 8.21037,-6.153246 7.51327,-5.069898 13.46773,-11.059082 13.46773,-13.546261 0,-0.824146 -1.06903,-3.620988 -2.37562,-6.215204 -2.83268,-5.6242303 -4.33578,-12.2382403 -5.19715,-22.8687703 l -0.63591,-7.8479857 3.35434,-3.79736 c 2.95722,-3.347792 4.14318,-3.917799 10.01741,-4.814674 5.89433,-0.899945 7.10573,-0.790337 10.5,0.950042 6.40711,3.285195 8.174,5.943059 9.46312,14.2349687 1.07525,6.916264 1.00083,7.851444 -0.98136,12.33251 -1.17966,2.666812 -2.14483,5.75553 -2.14483,6.863818 0,1.1082873 1.98007,4.3327683 4.40016,7.1655123 3.92448,4.593657 5.24877,5.409287 12.25,7.544828 11.0652,3.375145 17.20772,6.570612 17.83589,9.278594 3.79946,16.379121 6.97705,44.149782 6.21855,54.347282 -0.50041,6.72763 -0.86085,7.58834 -6.77737,16.183711 l -6.24886,9.07819 1.13185,8.31629 c 2.45466,18.03562 3.54817,34.8579 2.34416,36.06191 -2.46563,2.46563 -1.30687,11.74843 6.83496,54.75438 2.87143,15.16719 2.9404,16.30276 3.21197,52.88697 l 0.27753,37.38697 -3.0402,1.63048 c -1.67212,0.89676 -6.72591,5.95543 -9.16478,7.20105 -8.45958,4.32062 -11.94483,4.16729 -20.26861,3.001 z"
       id="path3877"
       inkscape:connector-curvature="0"
       sodipodi:nodetypes="cssssssssssssssssssscssssssscssssssssssscsssscssc" />
    <path
       style="fill:#cc0000;fill-opacity:0;fill-rule:nonzero;stroke:#4e2fcc;stroke-width:1.39999998;stroke-linecap:square;stroke-linejoin:round;stroke-miterlimit:4;stroke-opacity:0;stroke-dasharray:none;stroke-dashoffset:0"
       d="m 344.35607,314.17358 c -2.82393,-1.13508 -2.89156,-4.07826 -0.15072,-6.55869 1.15461,-1.04491 4.07961,-4.53424 6.5,-7.75407 3.19072,-4.2446 4.40072,-6.78935 4.40072,-9.25516 0,-2.70797 -0.39827,-3.40092 -1.95469,-3.40092 -2.40597,0 -2.56165,-0.83039 -4.59339,-24.5 -0.8498,-9.9 -2.23579,-22.5 -3.08,-28 -1.70271,-11.09317 -11.95636,-43.87487 -13.43717,-42.95967 -0.51411,0.31774 -0.93475,2.72299 -0.93475,5.34501 0,2.62202 -0.44818,9.45796 -0.99596,15.19098 -0.54779,5.73303 -1.39735,21.5668 -1.88792,35.18617 -0.50388,13.98869 -1.33688,25.30091 -1.91455,26 -0.56243,0.68063 -1.3458,2.96685 -1.74082,5.0805 -1.01081,5.40853 -5.2065,7.96533 -11.88525,7.24272 -4.19109,-0.45346 -5.69265,-0.0933 -10.08228,2.41817 -3.7533,2.14742 -7.07379,3.12905 -12.19411,3.60494 -6.36601,0.59166 -7.24286,0.44743 -9.2042,-1.51391 -1.19232,-1.19232 -1.89242,-2.61353 -1.55577,-3.15824 0.33665,-0.54471 4.14713,-2.76777 8.46774,-4.94013 5.05305,-2.54062 8.84393,-5.24545 10.62581,-7.58162 6.10603,-8.00542 10.00818,-40.05891 7.43251,-61.05311 -0.66544,-5.42399 -3.20234,-21.74397 -5.63755,-36.26661 -3.39471,-20.24476 -4.42765,-29.00789 -4.42765,-37.5629 0,-11.07777 -0.0215,-11.17869 -2.98225,-14.01529 -5.87135,-5.62512 -6.31011,-8.50661 -5.74348,-37.719981 0.5087,-26.22717 2.44168,-44.480609 5.04763,-47.665564 0.61585,-0.752693 4.28287,-3.516397 8.14892,-6.141566 12.91675,-8.770876 14.92167,-12.293089 11.20148,-19.678573 -2.87886,-5.7152463 -4.38002,-12.2874283 -5.24507,-22.9633423 l -0.63591,-7.8479857 3.35434,-3.79736 c 2.95722,-3.347792 4.14318,-3.917799 10.01741,-4.814674 5.89433,-0.899945 7.10573,-0.790337 10.5,0.950042 6.16674,3.161946 8.07125,5.920091 9.40823,13.625122 1.12092,6.4598877 1.04002,7.4482327 -1.1193,13.6752957 l -2.32754,6.7121663 2.87617,4.150323 c 4.09203,5.9048 6.72079,7.666121 15.65298,10.487798 10.72092,3.386736 15.70499,6.063912 16.33343,8.773448 3.8141,16.444597 6.97601,44.14715 6.21161,54.42206 -0.50818,6.83084 -0.8415,7.62727 -6.7763,16.191401 l -6.24182,9.00719 1.13077,8.3086 c 2.4537,18.02906 3.54688,34.85041 2.34308,36.05421 -0.63491,0.63491 -1.15265,3.20188 -1.15054,5.70438 0.004,4.21183 7.91561,51.12544 9.95887,59.05 0.49635,1.925 1.04346,20.825 1.21581,42 l 0.31336,38.5 -3.06263,1.53335 c -1.68444,0.84335 -4.63983,3.11057 -6.56753,5.03827 -1.9277,1.92769 -5.3249,4.05018 -7.54933,4.71664 -4.67661,1.40115 -12.79862,1.49246 -16.06239,0.18058 z"
       id="path3879"
       inkscape:connector-curvature="0" />
    <path
       style="fill:#cc0000;fill-opacity:0;fill-rule:nonzero;stroke:#4e2fcc;stroke-width:1.39999998;stroke-linecap:square;stroke-linejoin:round;stroke-miterlimit:4;stroke-opacity:0;stroke-dasharray:none;stroke-dashoffset:0"
       d="m 344.35607,314.17358 c -2.82393,-1.13508 -2.89156,-4.07826 -0.15072,-6.55869 1.15461,-1.04491 4.07961,-4.53424 6.5,-7.75407 3.19072,-4.2446 4.40072,-6.78935 4.40072,-9.25516 0,-2.70797 -0.39827,-3.40092 -1.95469,-3.40092 -2.40597,0 -2.56165,-0.83039 -4.59339,-24.5 -0.8498,-9.9 -2.23579,-22.5 -3.08,-28 -1.70271,-11.09317 -11.95636,-43.87487 -13.43717,-42.95967 -0.51411,0.31774 -0.93475,2.72299 -0.93475,5.34501 0,2.62202 -0.44818,9.45796 -0.99596,15.19098 -0.54779,5.73303 -1.39735,21.5668 -1.88792,35.18617 -0.50388,13.98869 -1.33688,25.30091 -1.91455,26 -0.56243,0.68063 -1.3458,2.96685 -1.74082,5.0805 -1.01081,5.40853 -5.2065,7.96533 -11.88525,7.24272 -4.19109,-0.45346 -5.69265,-0.0933 -10.08228,2.41817 -3.7533,2.14742 -7.07379,3.12905 -12.19411,3.60494 -6.36601,0.59166 -7.24286,0.44743 -9.2042,-1.51391 -1.19232,-1.19232 -1.89242,-2.61353 -1.55577,-3.15824 0.33665,-0.54471 4.14713,-2.76777 8.46774,-4.94013 5.05305,-2.54062 8.84393,-5.24545 10.62581,-7.58162 6.10603,-8.00542 10.00818,-40.05891 7.43251,-61.05311 -0.66544,-5.42399 -3.20234,-21.74397 -5.63755,-36.26661 -3.39471,-20.24476 -4.42765,-29.00789 -4.42765,-37.5629 0,-11.07777 -0.0215,-11.17869 -2.98225,-14.01529 -5.87135,-5.62512 -6.31011,-8.50661 -5.74348,-37.719981 0.5087,-26.22717 2.44168,-44.480609 5.04763,-47.665564 0.61585,-0.752693 4.28287,-3.516397 8.14892,-6.141566 12.91675,-8.770876 14.92167,-12.293089 11.20148,-19.678573 -2.87886,-5.7152463 -4.38002,-12.2874283 -5.24507,-22.9633423 l -0.63591,-7.8479857 3.35434,-3.79736 c 2.95722,-3.347792 4.14318,-3.917799 10.01741,-4.814674 5.89433,-0.899945 7.10573,-0.790337 10.5,0.950042 6.16674,3.161946 8.07125,5.920091 9.40823,13.625122 1.12092,6.4598877 1.04002,7.4482327 -1.1193,13.6752957 l -2.32754,6.7121663 2.87617,4.150323 c 4.09203,5.9048 6.72079,7.666121 15.65298,10.487798 10.72092,3.386736 15.70499,6.063912 16.33343,8.773448 3.8141,16.444597 6.97601,44.14715 6.21161,54.42206 -0.50818,6.83084 -0.8415,7.62727 -6.7763,16.191401 l -6.24182,9.00719 1.13077,8.3086 c 2.4537,18.02906 3.54688,34.85041 2.34308,36.05421 -0.63491,0.63491 -1.15265,3.20188 -1.15054,5.70438 0.004,4.21183 7.91561,51.12544 9.95887,59.05 0.49635,1.925 1.04346,20.825 1.21581,42 l 0.31336,38.5 -3.06263,1.53335 c -1.68444,0.84335 -4.63983,3.11057 -6.56753,5.03827 -1.9277,1.92769 -5.3249,4.05018 -7.54933,4.71664 -4.67661,1.40115 -12.79862,1.49246 -16.06239,0.18058 z"
       id="path3881"
       inkscape:connector-curvature="0" />
    <path
       style="fill:#660000;fill-opacity:0;fill-rule:nonzero;stroke:#4e2fcc;stroke-width:1.39999998;stroke-linecap:square;stroke-linejoin:round;stroke-miterlimit:4;stroke-opacity:0;stroke-dasharray:none;stroke-dashoffset:0"
       d="m 136.10607,304.25923 c -1.375,-0.42549 -5.57487,-2.41181 -9.33305,-4.41405 -3.75818,-2.00224 -7.40094,-3.64044 -8.09502,-3.64044 -0.69407,0 -2.03921,-0.85886 -2.98919,-1.90857 -1.44409,-1.59571 -1.55537,-2.53103 -0.6788,-5.7057 0.70177,-2.54161 0.71529,-4.00303 0.0409,-4.41984 -1.35694,-0.83864 -1.90242,-12.6271 -2.95984,-63.96589 -0.82663,-40.13394 -1.67918,-51.87135 -3.94441,-54.30408 -0.41179,-0.44224 -1.31356,2.6974 -2.00393,6.97699 -0.69037,4.27958 -4.35767,19.37117 -8.149545,33.53687 -8.161,30.48788 -9.50987,38.66672 -10.83502,65.6983 -0.93822,19.13877 -1.14199,20.55916 -3.27626,22.83731 -1.25169,1.33609 -3.62581,3.0684 -5.27581,3.8496 -1.65,0.78119 -4.39633,2.31967 -6.10295,3.41885 -2.69624,1.73655 -3.9139,1.8876 -9.28995,1.15237 -9.96432,-1.3627 -10.22199,-3.01461 -2.06243,-13.22209 4.93557,-6.17431 6.08232,-8.94285 3.70533,-8.94553 -0.97513,-10e-4 -1.2393,-7.09256 -1.20133,-32.25 0.0268,-17.73672 0.36333,-33.16259 0.74791,-34.27971 0.38459,-1.11712 1.12987,-11.45589 1.65617,-22.97504 l 0.95692,-20.94392 -3.45484,-2.84776 c -3.43418,-2.83075 -3.45483,-2.89743 -3.45483,-11.15833 0,-7.61723 -0.17625,-8.35666 -2.11261,-8.86303 l -2.11262,-0.55246 0.49114,-42.31417 c 0.51176,-44.091471 2.25446,-67.5531 5.25998,-70.814172 0.76035,-0.825 7.53452,-4.875 15.0537,-9 7.51918,-4.125 14.96481,-8.693044 16.54583,-10.15121 3.6393,-3.356509 3.82499,-7.6073003 0.46998,-10.7591633 -3.18372,-2.990953 -3.74818,-6.776318 -2.61661,-17.5474737 1.04574,-9.954172 2.56628,-12.933344 8.09229,-15.855135 4.607195,-2.435971 14.532035,-1.817881 18.722475,1.165981 5.42878,3.865627 6.21319,6.101387 6.36283,18.1355827 0.11204,9.01094595 -0.16698,11.365646 -1.52452,12.865711 -0.97619,1.078678 -1.74814,3.823289 -1.87131,6.65327 -0.18834,4.3274373 0.1138,5.0775773 2.97197,7.3787883 1.74988,1.408897 9.38843,5.048335 16.97455,8.08764 l 13.79293,5.526009 1.79928,5.5 c 4.44674,13.592642 7.65988,54.847071 7.69125,98.750002 0.009,12.2794 -0.1275,13.25 -1.86042,13.25 -1.49728,0 -2.11239,1.24547 -3.08676,6.25 -1.70537,8.75906 -3.71596,12.49063 -8.68085,16.1113 l -4.30399,3.1387 -0.49478,22 c -0.38402,17.07522 -1.05737,25.35781 -3.00799,37 -1.38227,8.25 -3.03005,22.425 -3.66173,31.5 -0.63169,9.075 -1.58591,17.04991 -2.12049,17.72202 -1.21687,1.52993 2.13054,5.81382 7.69195,9.84389 5.82454,4.22073 10.53453,8.50785 10.53453,9.58871 0,2.88953 -12.74652,4.83496 -19,2.89987 l 0,0 z"
       id="path3883"
       inkscape:connector-curvature="0" />
    <path
       style="fill:#cc0000;fill-opacity:0;fill-rule:nonzero;stroke:#4e2fcc;stroke-width:1.39999998;stroke-linecap:square;stroke-linejoin:round;stroke-miterlimit:4;stroke-opacity:0;stroke-dasharray:none;stroke-dashoffset:0"
       d="m 344.35607,314.17358 c -2.82393,-1.13508 -2.89156,-4.07826 -0.15072,-6.55869 1.15461,-1.04491 4.07961,-4.53424 6.5,-7.75407 3.19072,-4.2446 4.40072,-6.78935 4.40072,-9.25516 0,-2.70797 -0.39827,-3.40092 -1.95469,-3.40092 -2.40597,0 -2.56165,-0.83039 -4.59339,-24.5 -0.8498,-9.9 -2.23579,-22.5 -3.08,-28 -1.70271,-11.09317 -11.95636,-43.87487 -13.43717,-42.95967 -0.51411,0.31774 -0.93475,2.72299 -0.93475,5.34501 0,2.62202 -0.44818,9.45796 -0.99596,15.19098 -0.54779,5.73303 -1.39735,21.5668 -1.88792,35.18617 -0.50388,13.98869 -1.33688,25.30091 -1.91455,26 -0.56243,0.68063 -1.3458,2.96685 -1.74082,5.0805 -1.01081,5.40853 -5.2065,7.96533 -11.88525,7.24272 -4.19109,-0.45346 -5.69265,-0.0933 -10.08228,2.41817 -3.7533,2.14742 -7.07379,3.12905 -12.19411,3.60494 -6.36601,0.59166 -7.24286,0.44743 -9.2042,-1.51391 -1.19232,-1.19232 -1.89242,-2.61353 -1.55577,-3.15824 0.33665,-0.54471 4.14713,-2.76777 8.46774,-4.94013 5.05305,-2.54062 8.84393,-5.24545 10.62581,-7.58162 6.10603,-8.00542 10.00818,-40.05891 7.43251,-61.05311 -0.66544,-5.42399 -3.20234,-21.74397 -5.63755,-36.26661 -3.39471,-20.24476 -4.42765,-29.00789 -4.42765,-37.5629 0,-11.07777 -0.0215,-11.17869 -2.98225,-14.01529 -5.87135,-5.62512 -6.31011,-8.50661 -5.74348,-37.719981 0.5087,-26.22717 2.44168,-44.480609 5.04763,-47.665564 0.61585,-0.752693 4.28287,-3.516397 8.14892,-6.141566 12.91675,-8.770876 14.92167,-12.293089 11.20148,-19.678573 -2.87886,-5.7152463 -4.38002,-12.2874283 -5.24507,-22.9633423 l -0.63591,-7.8479857 3.35434,-3.79736 c 2.95722,-3.347792 4.14318,-3.917799 10.01741,-4.814674 5.89433,-0.899945 7.10573,-0.790337 10.5,0.950042 6.16674,3.161946 8.07125,5.920091 9.40823,13.625122 1.12092,6.4598877 1.04002,7.4482327 -1.1193,13.6752957 l -2.32754,6.7121663 2.87617,4.150323 c 4.09203,5.9048 6.72079,7.666121 15.65298,10.487798 10.72092,3.386736 15.70499,6.063912 16.33343,8.773448 3.8141,16.444597 6.97601,44.14715 6.21161,54.42206 -0.50818,6.83084 -0.8415,7.62727 -6.7763,16.191401 l -6.24182,9.00719 1.13077,8.3086 c 2.4537,18.02906 3.54688,34.85041 2.34308,36.05421 -0.63491,0.63491 -1.15265,3.20188 -1.15054,5.70438 0.004,4.21183 7.91561,51.12544 9.95887,59.05 0.49635,1.925 1.04346,20.825 1.21581,42 l 0.31336,38.5 -3.06263,1.53335 c -1.68444,0.84335 -4.63983,3.11057 -6.56753,5.03827 -1.9277,1.92769 -5.3249,4.05018 -7.54933,4.71664 -4.67661,1.40115 -12.79862,1.49246 -16.06239,0.18058 z"
       id="path3885"
       inkscape:connector-curvature="0" />
    <path
       style="fill:#cc0000;fill-opacity:0;fill-rule:nonzero;stroke:#4e2fcc;stroke-width:1.39999998;stroke-linecap:square;stroke-linejoin:round;stroke-miterlimit:4;stroke-opacity:0;stroke-dasharray:none;stroke-dashoffset:0"
       d="m 344.35607,314.17358 c -2.82393,-1.13508 -2.89156,-4.07826 -0.15072,-6.55869 1.15461,-1.04491 4.07961,-4.53424 6.5,-7.75407 3.19072,-4.2446 4.40072,-6.78935 4.40072,-9.25516 0,-2.70797 -0.39827,-3.40092 -1.95469,-3.40092 -2.40597,0 -2.56165,-0.83039 -4.59339,-24.5 -0.8498,-9.9 -2.23579,-22.5 -3.08,-28 -1.70271,-11.09317 -11.95636,-43.87487 -13.43717,-42.95967 -0.51411,0.31774 -0.93475,2.72299 -0.93475,5.34501 0,2.62202 -0.44818,9.45796 -0.99596,15.19098 -0.54779,5.73303 -1.39735,21.5668 -1.88792,35.18617 -0.50388,13.98869 -1.33688,25.30091 -1.91455,26 -0.56243,0.68063 -1.3458,2.96685 -1.74082,5.0805 -1.01081,5.40853 -5.2065,7.96533 -11.88525,7.24272 -4.19109,-0.45346 -5.69265,-0.0933 -10.08228,2.41817 -3.7533,2.14742 -7.07379,3.12905 -12.19411,3.60494 -6.36601,0.59166 -7.24286,0.44743 -9.2042,-1.51391 -1.19232,-1.19232 -1.89242,-2.61353 -1.55577,-3.15824 0.33665,-0.54471 4.14713,-2.76777 8.46774,-4.94013 5.05305,-2.54062 8.84393,-5.24545 10.62581,-7.58162 6.10603,-8.00542 10.00818,-40.05891 7.43251,-61.05311 -0.66544,-5.42399 -3.20234,-21.74397 -5.63755,-36.26661 -3.39471,-20.24476 -4.42765,-29.00789 -4.42765,-37.5629 0,-11.07777 -0.0215,-11.17869 -2.98225,-14.01529 -5.87135,-5.62512 -6.31011,-8.50661 -5.74348,-37.719981 0.5087,-26.22717 2.44168,-44.480609 5.04763,-47.665564 0.61585,-0.752693 4.28287,-3.516397 8.14892,-6.141566 12.91675,-8.770876 14.92167,-12.293089 11.20148,-19.678573 -2.87886,-5.7152463 -4.38002,-12.2874283 -5.24507,-22.9633423 l -0.63591,-7.8479857 3.35434,-3.79736 c 2.95722,-3.347792 4.14318,-3.917799 10.01741,-4.814674 5.89433,-0.899945 7.10573,-0.790337 10.5,0.950042 6.16674,3.161946 8.07125,5.920091 9.40823,13.625122 1.12092,6.4598877 1.04002,7.4482327 -1.1193,13.6752957 l -2.32754,6.7121663 2.87617,4.150323 c 4.09203,5.9048 6.72079,7.666121 15.65298,10.487798 10.72092,3.386736 15.70499,6.063912 16.33343,8.773448 3.8141,16.444597 6.97601,44.14715 6.21161,54.42206 -0.50818,6.83084 -0.8415,7.62727 -6.7763,16.191401 l -6.24182,9.00719 1.13077,8.3086 c 2.4537,18.02906 3.54688,34.85041 2.34308,36.05421 -0.63491,0.63491 -1.15265,3.20188 -1.15054,5.70438 0.004,4.21183 7.91561,51.12544 9.95887,59.05 0.49635,1.925 1.04346,20.825 1.21581,42 l 0.31336,38.5 -3.06263,1.53335 c -1.68444,0.84335 -4.63983,3.11057 -6.56753,5.03827 -1.9277,1.92769 -5.3249,4.05018 -7.54933,4.71664 -4.67661,1.40115 -12.79862,1.49246 -16.06239,0.18058 z"
       id="path3887"
       inkscape:connector-curvature="0" />
    <path
       style="fill:#cc0000;fill-opacity:0;fill-rule:nonzero;stroke:#4e2fcc;stroke-width:1.39999998;stroke-linecap:square;stroke-linejoin:round;stroke-miterlimit:4;stroke-opacity:0;stroke-dasharray:none;stroke-dashoffset:0"
       d="m 344.35607,314.17358 c -2.82393,-1.13508 -2.89156,-4.07826 -0.15072,-6.55869 1.15461,-1.04491 4.07961,-4.53424 6.5,-7.75407 3.19072,-4.2446 4.40072,-6.78935 4.40072,-9.25516 0,-2.70797 -0.39827,-3.40092 -1.95469,-3.40092 -2.40597,0 -2.56165,-0.83039 -4.59339,-24.5 -0.8498,-9.9 -2.23579,-22.5 -3.08,-28 -1.70271,-11.09317 -11.95636,-43.87487 -13.43717,-42.95967 -0.51411,0.31774 -0.93475,2.72299 -0.93475,5.34501 0,2.62202 -0.44818,9.45796 -0.99596,15.19098 -0.54779,5.73303 -1.39735,21.5668 -1.88792,35.18617 -0.50388,13.98869 -1.33688,25.30091 -1.91455,26 -0.56243,0.68063 -1.3458,2.96685 -1.74082,5.0805 -1.01081,5.40853 -5.2065,7.96533 -11.88525,7.24272 -4.19109,-0.45346 -5.69265,-0.0933 -10.08228,2.41817 -3.7533,2.14742 -7.07379,3.12905 -12.19411,3.60494 -6.36601,0.59166 -7.24286,0.44743 -9.2042,-1.51391 -1.19232,-1.19232 -1.89242,-2.61353 -1.55577,-3.15824 0.33665,-0.54471 4.14713,-2.76777 8.46774,-4.94013 5.05305,-2.54062 8.84393,-5.24545 10.62581,-7.58162 6.10603,-8.00542 10.00818,-40.05891 7.43251,-61.05311 -0.66544,-5.42399 -3.20234,-21.74397 -5.63755,-36.26661 -3.39471,-20.24476 -4.42765,-29.00789 -4.42765,-37.5629 0,-11.07777 -0.0215,-11.17869 -2.98225,-14.01529 -5.87135,-5.62512 -6.31011,-8.50661 -5.74348,-37.719981 0.5087,-26.22717 2.44168,-44.480609 5.04763,-47.665564 0.61585,-0.752693 4.28287,-3.516397 8.14892,-6.141566 12.91675,-8.770876 14.92167,-12.293089 11.20148,-19.678573 -2.87886,-5.7152463 -4.38002,-12.2874283 -5.24507,-22.9633423 l -0.63591,-7.8479857 3.35434,-3.79736 c 2.95722,-3.347792 4.14318,-3.917799 10.01741,-4.814674 5.89433,-0.899945 7.10573,-0.790337 10.5,0.950042 6.16674,3.161946 8.07125,5.920091 9.40823,13.625122 1.12092,6.4598877 1.04002,7.4482327 -1.1193,13.6752957 l -2.32754,6.7121663 2.87617,4.150323 c 4.09203,5.9048 6.72079,7.666121 15.65298,10.487798 10.72092,3.386736 15.70499,6.063912 16.33343,8.773448 3.8141,16.444597 6.97601,44.14715 6.21161,54.42206 -0.50818,6.83084 -0.8415,7.62727 -6.7763,16.191401 l -6.24182,9.00719 1.13077,8.3086 c 2.4537,18.02906 3.54688,34.85041 2.34308,36.05421 -0.63491,0.63491 -1.15265,3.20188 -1.15054,5.70438 0.004,4.21183 7.91561,51.12544 9.95887,59.05 0.49635,1.925 1.04346,20.825 1.21581,42 l 0.31336,38.5 -3.06263,1.53335 c -1.68444,0.84335 -4.63983,3.11057 -6.56753,5.03827 -1.9277,1.92769 -5.3249,4.05018 -7.54933,4.71664 -4.67661,1.40115 -12.79862,1.49246 -16.06239,0.18058 z"
       id="path3889"
       inkscape:connector-curvature="0" />
    <path
       style="fill:#660000;fill-opacity:0;fill-rule:nonzero;stroke:#4e2fcc;stroke-width:1.21739125;stroke-linecap:square;stroke-linejoin:round;stroke-miterlimit:4;stroke-opacity:0;stroke-dasharray:none;stroke-dashoffset:0"
       d="m 118.15248,414.33723 c -1.04007,-0.4192 -3.48799,-1.77031 -5.43982,-3.00244 -1.95183,-1.23214 -5.70029,-3.04523 -8.32991,-4.02909 -5.8495,-2.18859 -6.923735,-3.8636 -5.60904,-8.74601 0.53966,-2.00414 0.633347,-3.83305 0.2114,-4.1268 -2.005613,-1.39629 -2.789406,-15.25045 -2.858573,-50.52756 -0.03985,-20.32609 -0.430349,-41.65509 -0.867769,-47.39777 -0.803594,-10.55003 -2.271383,-19.43139 -3.415402,-20.66606 -0.34273,-0.36988 -1.109797,2.5649 -1.704595,6.52174 -0.594796,3.95685 -4.354989,19.52035 -8.355983,34.58557 -8.182018,30.80831 -9.433881,38.60893 -10.802732,67.31409 l -0.867117,18.18366 -2.860795,2.97127 c -1.573437,1.6342 -4.034707,3.53064 -5.46949,4.21431 -1.434783,0.68368 -3.862377,2.04813 -5.394653,3.03212 -2.414671,1.55064 -3.58874,1.70997 -8.809645,1.19551 -6.818988,-0.67193 -7.508111,-0.96507 -8.309171,-3.5347 -0.43026,-1.38018 0.465648,-3.19236 3.578451,-7.23824 7.351958,-9.55573 8.274575,-11.35541 5.821417,-11.35541 -1.236285,0 -1.334724,-3.43135 -0.979137,-34.13044 0.217432,-18.77174 0.812617,-39.80435 1.322633,-46.73913 0.510015,-6.93478 1.085129,-16.58616 1.278031,-21.44752 0.32783,-8.26172 0.231857,-8.90395 -1.469903,-9.83614 -3.972305,-2.17594 -5.282592,-5.26503 -5.599834,-13.20198 -0.26097,-6.52911 -0.520837,-7.58664 -1.956522,-7.96208 -1.588538,-0.41541 -1.65524,-1.67748 -1.647168,-31.16652 0.0089,-32.69118 0.915649,-53.52357 3.097509,-71.16837 1.558965,-12.60743 -0.01559,-10.69783 16.363312,-19.8451 6.270183,-3.50176 13.45468,-7.71228 15.965549,-9.35671 4.196885,-2.74863 4.565218,-3.25954 4.565218,-6.33227 0,-2.357 -0.638759,-4.03163 -2.166614,-5.68021 -3.384754,-3.65221 -3.844971,-6.72949 -2.744447,-18.350924 0.407612,-4.304348 1.325194,-8.822235 2.039071,-10.03975 3.107379,-5.299625 10.406503,-7.809961 18.973174,-6.525309 3.212166,0.481694 4.912185,1.4493 8.323865,4.737723 l 4.28729,4.132401 -0.23155,11.741489 c -0.19331,9.80178 -0.48199,11.99192 -1.74748,13.2574 -1.06527,1.06527 -1.51592,2.90462 -1.51592,6.18732 0,4.33762 0.23299,4.8646 3.26087,7.37547 1.8609,1.54315 9.04742,5.01749 16.73913,8.09258 l 13.47826,5.3885 2.05677,6.08696 c 4.25775,12.60072 6.06909,34.04627 7.57319,89.66362 l 0.56705,20.96796 -2.11965,0.532 c -1.8588,0.46653 -2.30704,1.41751 -3.64242,7.72769 -1.779,8.40648 -4.38339,12.70135 -9.76283,16.09977 l -3.79943,2.40026 -0.003,20.86957 c -0.003,18.07175 -0.29883,22.73477 -2.20452,34.78261 -3.23222,20.43425 -3.72374,24.78914 -4.3674,38.69565 -0.45969,9.93176 -0.87416,12.83915 -1.95223,13.69414 -1.21496,0.96357 -1.0817,1.38751 1.1868,3.77562 1.40549,1.47959 5.7837,5.2189 9.72935,8.30957 3.94566,3.09068 7.17392,6.17509 7.17392,6.85423 0,2.34546 -4.80312,3.89084 -11.91334,3.83306 -3.73028,-0.0303 -7.63329,-0.39811 -8.67336,-0.81733 l -3.3e-4,0 z"
       id="path3895"
       inkscape:connector-curvature="0"
       transform="translate(16.227759,-110.30929)" />
    <path
       style="fill:#0099cc;fill-opacity:1;fill-rule:nonzero;stroke:#000000;stroke-width:2;stroke-miterlimit:4;stroke-opacity:1;stroke-dasharray:none"
       d="m 118.15248,414.33723 c -1.04007,-0.4192 -3.48799,-1.77031 -5.43982,-3.00244 -1.95183,-1.23214 -5.70029,-3.04523 -8.32991,-4.02909 -5.8495,-2.18859 -6.923735,-3.8636 -5.60904,-8.74601 0.53966,-2.00414 0.633347,-3.83305 0.2114,-4.1268 -2.005613,-1.39629 -2.789406,-15.25045 -2.858573,-50.52756 -0.03985,-20.32609 -0.430349,-41.65509 -0.867769,-47.39777 -0.803594,-10.55003 -2.271383,-19.43139 -3.415402,-20.66606 -0.34273,-0.36988 -1.109797,2.5649 -1.704595,6.52174 -0.594796,3.95685 -4.354989,19.52035 -8.355983,34.58557 -8.182018,30.80831 -9.433881,38.60893 -10.802732,67.31409 l -0.867117,18.18366 -2.860795,2.97127 c -1.573437,1.6342 -4.034707,3.53064 -5.46949,4.21431 -1.434783,0.68368 -3.862377,2.04813 -5.394653,3.03212 -2.414671,1.55064 -3.58874,1.70997 -8.809645,1.19551 -6.818988,-0.67193 -7.508111,-0.96507 -8.309171,-3.5347 -0.43026,-1.38018 0.465648,-3.19236 3.578451,-7.23824 7.351958,-9.55573 8.274575,-11.35541 5.821417,-11.35541 -1.236285,0 -1.334724,-3.43135 -0.979137,-34.13044 0.217432,-18.77174 0.812617,-39.80435 1.322633,-46.73913 0.510015,-6.93478 1.085129,-16.58616 1.278031,-21.44752 0.32783,-8.26172 0.231857,-8.90395 -1.469903,-9.83614 -3.972305,-2.17594 -5.282592,-5.26503 -5.599834,-13.20198 -0.26097,-6.52911 -0.520837,-7.58664 -1.956522,-7.96208 -1.588538,-0.41541 -1.65524,-1.67748 -1.647168,-31.16652 0.0089,-32.69118 0.915649,-53.52357 3.097509,-71.16837 1.558965,-12.60743 -0.01559,-10.69783 16.363312,-19.8451 6.270183,-3.50176 13.45468,-7.71228 15.965549,-9.35671 4.196885,-2.74863 4.565218,-3.25954 4.565218,-6.33227 0,-2.357 -0.638759,-4.03163 -2.166614,-5.68021 -3.384754,-3.65221 -3.844971,-6.72949 -2.744447,-18.350924 0.407612,-4.304348 1.325194,-8.822235 2.039071,-10.03975 3.107379,-5.299625 10.406503,-7.809961 18.973174,-6.525309 3.212166,0.481694 4.912185,1.4493 8.323865,4.737723 l 4.28729,4.132401 -0.23155,11.741489 c -0.19331,9.80178 -0.48199,11.99192 -1.74748,13.2574 -1.06527,1.06527 -1.51592,2.90462 -1.51592,6.18732 0,4.33762 0.23299,4.8646 3.26087,7.37547 1.8609,1.54315 9.04742,5.01749 16.73913,8.09258 l 13.47826,5.3885 2.05677,6.08696 c 4.25775,12.60072 6.06909,34.04627 7.57319,89.66362 l 0.56705,20.96796 -2.11965,0.532 c -1.8588,0.46653 -2.30704,1.41751 -3.64242,7.72769 -1.779,8.40648 -4.38339,12.70135 -9.76283,16.09977 l -3.79943,2.40026 -0.003,20.86957 c -0.003,18.07175 -0.29883,22.73477 -2.20452,34.78261 -3.23222,20.43425 -3.72374,24.78914 -4.3674,38.69565 -0.45969,9.93176 -0.87416,12.83915 -1.95223,13.69414 -1.21496,0.96357 -1.0817,1.38751 1.1868,3.77562 1.40549,1.47959 5.7837,5.2189 9.72935,8.30957 3.94566,3.09068 7.17392,6.17509 7.17392,6.85423 0,2.34546 -4.80312,3.89084 -11.91334,3.83306 -3.73028,-0.0303 -7.63329,-0.39811 -8.67336,-0.81733 l -3.3e-4,0 z"
       id="path3897"
       inkscape:connector-curvature="0"
       transform="translate(16.227759,-110.30929)" />
    <path
       style="fill:#9933cc;fill-opacity:1;fill-rule:nonzero;stroke:#000000;stroke-width:2;stroke-miterlimit:4;stroke-opacity:1;stroke-dasharray:none"
       d="m 227.61854,123.47055 6.64727,3.1742 c 3.656,1.74581 11.04176,4.43557 16.41278,5.97725 5.37103,1.54168 10.16345,3.28253 10.64982,3.86857 2.69772,3.25056 5.22205,34.99586 5.23064,65.77912 0.008,29.55566 -1.50415,38.55981 -8.34842,49.70296 l -3.08572,5.02385 0.61843,8.72297 c 0.59736,8.42567 0.55522,8.7395 -1.23635,9.20801 -1.71108,0.44746 -1.85594,1.06664 -1.86984,7.99231 -0.009,4.129 -0.41072,11.22467 -0.8943,15.76815 -2.88629,27.11809 -3.41677,39.27336 -3.42741,78.53542 -0.007,25.2269 -0.339,41.32214 -0.87338,42.32063 -0.47428,0.88621 -2.06594,1.87564 -3.53701,2.19874 -1.47108,0.3231 -2.87891,1.11965 -3.12851,1.7701 -0.2496,0.65045 0.95075,3.45823 2.66745,6.2395 1.7167,2.78128 3.12127,5.88457 3.12127,6.89623 0,3.13905 -4.00318,4.94361 -11.73913,5.2918 l -6.95652,0.3131 -4.33132,-4.17407 c -4.0366,-3.89004 -4.33456,-4.4699 -4.37899,-8.52189 -0.0262,-2.3913 -0.56383,-5.52174 -1.19469,-6.95652 -1.48536,-3.37822 -0.82227,-24.6326 1.20724,-38.69565 1.25032,-8.66386 1.31894,-12.48935 0.51359,-28.63084 -1.55874,-31.24165 -6.86855,-74.16101 -9.50053,-76.79299 -1.18503,-1.18503 -2.31027,31.81193 -2.29035,67.16296 0.0166,29.41771 0.0629,30.20908 2.38729,40.77176 1.85784,8.44265 2.37037,13.05038 2.37037,21.31008 0,5.79609 -0.37832,11.85747 -0.84072,13.46975 -0.54954,1.91615 -0.54028,3.49278 0.0267,4.55226 1.27863,2.38914 -0.20037,7.12265 -2.54869,8.15702 -1.09935,0.48423 -2.18554,1.91426 -2.45116,3.22708 -0.34243,1.69243 -1.2455,2.59336 -3.20114,3.19355 -3.37183,1.03483 -17.00801,1.77767 -17.51691,0.95426 l 0,0 3e-5,0 c -2.11197,-3.41725 -1.96698,-5.13332 0.91821,-10.86781 1.62696,-3.23369 2.78168,-6.16491 2.56604,-6.51382 -0.21564,-0.34891 -1.94351,-0.88247 -3.83971,-1.18569 -1.8962,-0.30321 -3.70292,-0.96435 -4.01493,-1.4692 -0.31202,-0.50485 -1.09986,-10.5799 -1.75076,-22.38901 -3.23187,-58.63499 -4.09593,-67.83448 -7.89715,-84.07979 -1.67862,-7.17392 -3.99731,-17.93479 -5.15264,-23.91305 -1.28754,-6.6623 -2.60987,-11.24325 -3.41628,-11.83499 -1.53612,-1.12719 -1.67752,-5.01864 -0.42797,-11.77805 0.88581,-4.79181 0.87911,-4.81631 -3.14905,-11.51818 l -4.03675,-6.71618 -1.63789,-17.11977 c -2.93984,-30.72823 -3.01936,-42.63432 -0.40335,-60.39169 3.10902,-21.10394 3.78323,-23.88577 6.47376,-26.71136 1.39709,-1.46723 7.0175,-4.40058 14.31358,-7.47041 7.94861,-2.00353 11.98858,-6.88065 17.46711,-10.68112 3.09544,-6.59973 5.08656,-11.36233 -0.75818,-18.48603 -2.35444,-2.833 -4.44071,-17.39423 -3.49654,-24.404278 0.83378,-6.190422 5.4797,-10.847018 13.53782,-13.568911 5.04214,-1.703148 6.16652,-1.794779 10.99793,-0.896283 4.5782,0.851405 5.93888,1.568125 9.11447,4.800911 l 3.73286,3.800097 0.67327,8.879427 c 1.0372,13.679097 0.80724,17.954337 -1.13476,21.096567 -1.8405,2.97799 -2.22868,7.36734 -0.87519,9.89634"
       id="path5397"
       inkscape:connector-curvature="0"
       transform="translate(16.227759,-110.30929)"
       sodipodi:nodetypes="cssssscsscsssssssscsssssssssscssscccssscsssssscssscccsssscssc" />
  </g>
  <g
     inkscape:groupmode="layer"
     id="layer3"
     inkscape:label="Cover"
     style="display:inline"
     sodipodi:insensitive="true">
    <rect
       style="opacity:0.20987657;fill:url(#linearGradient5429);fill-opacity:1;fill-rule:evenodd;stroke:#000000;stroke-width:14.74939442;stroke-linecap:butt;stroke-linejoin:round;stroke-miterlimit:4;stroke-opacity:1;stroke-dasharray:none"
       id="rect5405"
       width="483.07962"
       height="485.43362"
       x="-491.83545"
       y="7.1853991"
       ry="29.425125"
       transform="matrix(-6.625369e-4,-0.99999978,0.99999978,-6.5679247e-4,0,0)" />
  </g>
</svg>
